<?xml version="1.0" encoding="UTF-8"?>
<svg width="27px" height="28px" viewBox="0 0 27 28" version="1.1" xmlns="http://www.w3.org/2000/svg" xmlns:xlink="http://www.w3.org/1999/xlink">
    <!-- Generator: Sketch 52.4 (67378) - http://www.bohemiancoding.com/sketch -->
    <title></title>
    <desc>Created with Sketch.</desc>
    <g id="HOME" stroke="none" stroke-width="1" fill="none" fill-rule="evenodd">
        <g id="Menu" transform="translate(-363.000000, -116.000000)" fill="#403F42" stroke="#FFFFFF" stroke-width="2">
            <path d="M379.15625,130 L388.84375,139.6875 C388.947917,139.791667 389,139.934895 389,140.117188 C389,140.29948 388.947917,140.442708 388.84375,140.546875 L387.046875,142.34375 C386.942708,142.447917 386.79948,142.5 386.617188,142.5 C386.434895,142.5 386.291667,142.447917 386.1875,142.34375 L376.5,132.65625 L366.8125,142.34375 C366.708333,142.447917 366.565105,142.5 366.382812,142.5 C366.20052,142.5 366.057292,142.447917 365.953125,142.34375 L364.15625,140.546875 C364.052083,140.442708 364,140.29948 364,140.117188 C364,139.934895 364.052083,139.791667 364.15625,139.6875 L373.84375,130 L364.15625,120.3125 C364.052083,120.208333 364,120.065105 364,119.882812 C364,119.70052 364.052083,119.557292 364.15625,119.453125 L365.953125,117.65625 C366.057292,117.552083 366.20052,117.5 366.382812,117.5 C366.565105,117.5 366.708333,117.552083 366.8125,117.65625 L376.5,127.34375 L386.1875,117.65625 C386.291667,117.552083 386.434895,117.5 386.617188,117.5 C386.79948,117.5 386.942708,117.552083 387.046875,117.65625 L388.84375,119.453125 C388.947917,119.557292 389,119.70052 389,119.882812 C389,120.065105 388.947917,120.208333 388.84375,120.3125 L379.15625,130 Z" id=""></path>
        </g>
    </g>
</svg>