<?xml version="1.0" encoding="UTF-8"?>
<svg id="Layer_1" data-name="Layer 1" xmlns="http://www.w3.org/2000/svg" viewBox="0 0 537.21 415.74"><defs><style>.cls-1{font-size:95.1px;font-family:ArialRoundedMTBold, Arial Rounded MT Bold;}.cls-1,.cls-3{fill:#fff;}.cls-2{letter-spacing:0.01em;}</style></defs><title>logo-Dung-561x561</title><text class="cls-1" transform="translate(0 395.68)">COINB<tspan class="cls-2" x="316.14" y="0">O</tspan><tspan x="392.62" y="0">WL</tspan></text><circle class="cls-3" cx="429.96" cy="39.19" r="39.19"/><path class="cls-3" d="M458.44,176.35c-99.52-1.62-316.32-192.14-392.07,0h0v0h0c0,91.78,88.39,166.25,197.34,166.25S461,268.24,461,176.44Zm-140.95,94a50.24,50.24,0,0,1-10,14.77,48.74,48.74,0,0,1-13.45,9.92,6.52,6.52,0,0,1,.18,1.48v22.33a6.3,6.3,0,0,1-6.28,6.28h-8.15a6.3,6.3,0,0,1-6.28-6.28V301a77.22,77.22,0,0,1-8,.42c-3,0-5.79-.13-8.52-.36v17.79a6.3,6.3,0,0,1-6.28,6.28h-8.15a6.3,6.3,0,0,1-6.28-6.28V296.53c0-.12,0-.23,0-.35a50.83,50.83,0,0,1-6.06-3.11,53.4,53.4,0,0,1-13.1-11.31A67.21,67.21,0,0,1,208,267.5a74.38,74.38,0,0,1-5.65-16.85,92,92,0,0,1-1.89-19,84.6,84.6,0,0,1,4.74-29.26,62.5,62.5,0,0,1,13.56-22.11,59.16,59.16,0,0,1,17.49-12.58V147.4a6.3,6.3,0,0,1,6.28-6.28h8.15A6.3,6.3,0,0,1,257,147.4v14.51a71.2,71.2,0,0,1,7.79-.44,73.75,73.75,0,0,1,8.78.51V147.4a6.3,6.3,0,0,1,6.28-6.28H288a6.3,6.3,0,0,1,6.28,6.28v20.8q12.54,6.51,19.25,16t6.81,18.23a11.94,11.94,0,0,1-3.31,8.31,10.5,10.5,0,0,1-8,3.6q-5.24,0-7.86-2.49t-5.84-8.59q-5.32-10.06-12.55-15t-17.8-5q-16.83,0-26.81,12.83t-10,36.47q0,15.78,4.42,26.26t12.51,15.65A34.38,34.38,0,0,0,264,279.64q11.78,0,19.91-5.86t12.28-17.22a29.19,29.19,0,0,1,4.32-8.72q2.58-3.37,8.28-3.37a11.58,11.58,0,0,1,8.37,3.41,11.4,11.4,0,0,1,3.49,8.5A36.08,36.08,0,0,1,317.49,270.36Z" transform="translate(-10.92 -70.13)"/></svg>
