<?xml version="1.0" encoding="UTF-8"?>
<svg width="61px" height="43px" viewBox="0 0 61 43" version="1.1" xmlns="http://www.w3.org/2000/svg" xmlns:xlink="http://www.w3.org/1999/xlink">
    <!-- Generator: Sketch 51.3 (57544) - http://www.bohemiancoding.com/sketch -->
    <title>Group 7</title>
    <desc>Created with Sketch.</desc>
    <defs></defs>
    <g id="HOME" stroke="none" stroke-width="1" fill="none" fill-rule="evenodd">
        <g id="Group-7">
            <g id="Group-4">
                <polygon id="Clip-1" points="0 2.62773723e-05 59.9510365 2.62773723e-05 59.9510365 44.2251007 0 44.2251007"></polygon>
                <path d="M7.30165679,39.5483906 C7.30165679,39.7902257 7.2420626,40.0519219 7.12287243,40.3334871 C7.00368227,40.6150523 6.81626286,40.8914311 6.56060859,41.162632 C6.30495431,41.4338328 5.9784818,41.6540722 5.58118124,41.8233568 C5.18388068,41.9926413 4.7209461,42.0772824 4.19236362,42.0772824 C3.79160828,42.0772824 3.42713367,42.0392803 3.09892886,41.9632749 C2.77072405,41.8872696 2.4727531,41.7689449 2.20500707,41.6082973 C1.93726104,41.4476497 1.69111113,41.2360471 1.46654994,40.9734833 C1.26617227,40.735103 1.09516286,40.4682246 0.953516572,40.1728403 C0.811870286,39.877456 0.705637165,39.5622113 0.634814022,39.227097 C0.563990879,38.8919826 0.528579839,38.5361448 0.528579839,38.159573 C0.528579839,37.5480756 0.617539281,37.0005 0.795460836,36.5168297 C0.97338239,36.0331595 1.22816914,35.6194549 1.55982874,35.2757036 C1.89148834,34.9319522 2.2801461,34.670256 2.72581368,34.490607 C3.17148126,34.3109581 3.64650741,34.221135 4.15090638,34.221135 C4.76585855,34.221135 5.31343415,34.3437781 5.7936496,34.589068 C6.27386506,34.8343579 6.64179441,35.1375109 6.89744868,35.4985362 C7.15310295,35.8595615 7.28092817,36.2007167 7.28092817,36.5220119 C7.28092817,36.6982061 7.21874293,36.8536692 7.09437058,36.9884059 C6.96999823,37.1231426 6.81971723,37.1905099 6.64352307,37.1905099 C6.44660018,37.1905099 6.29891024,37.143871 6.20044879,37.0505917 C6.10198735,36.9573125 5.99229949,36.7966673 5.87138193,36.5686513 C5.67100426,36.1920795 5.43521855,35.9105185 5.16401774,35.72396 C4.89281692,35.5374015 4.55857125,35.4441236 4.16127069,35.4441236 C3.52904458,35.4441236 3.02551687,35.6842277 2.65067243,36.1644432 C2.27582799,36.6446586 2.08840858,37.3269689 2.08840858,38.2113945 C2.08840858,38.8021632 2.17132223,39.2935993 2.33715203,39.6857177 C2.50298183,40.0778361 2.73790385,40.3706249 3.04192515,40.564093 C3.34594645,40.7575611 3.70178422,40.8542937 4.10944914,40.8542937 C4.55166193,40.8542937 4.92563707,40.7446059 5.23138576,40.5252269 C5.53713445,40.3058479 5.76773805,39.9836938 5.92320349,39.5587549 C5.98884445,39.3583772 6.07003073,39.195141 6.16676478,39.0690412 C6.26349883,38.9429415 6.41896194,38.8798926 6.63315876,38.8798926 C6.81626249,38.8798926 6.97345297,38.9438052 7.10473489,39.0716323 C7.23601681,39.1994594 7.30165679,39.3583773 7.30165679,39.5483906 Z M12.0277824,34.221135 C12.8154739,34.221135 13.4917384,34.3809165 14.0565962,34.7004843 C14.6214539,35.0200522 15.0489775,35.4743499 15.3391796,36.0633912 C15.6293818,36.6524324 15.7744807,37.3442432 15.7744807,38.1388444 C15.7744807,38.7261582 15.6950218,39.2599149 15.5361015,39.7401303 C15.3771813,40.2203458 15.1388045,40.6366414 14.8209641,40.9890298 C14.5031237,41.3414181 14.1127385,41.6108875 13.649797,41.797446 C13.1868555,41.9840045 12.6565536,42.0772824 12.0588753,42.0772824 C11.4646519,42.0772824 10.9326226,41.9814134 10.4627715,41.7896727 C9.99292042,41.597932 9.60080792,41.327599 9.28642226,40.9786654 C8.9720366,40.6297319 8.73452353,40.2099815 8.57387591,39.7194017 C8.41322829,39.2288219 8.33290569,38.69852 8.33290569,38.12848 C8.33290569,37.544621 8.41668303,37.0091369 8.58424022,36.5220119 C8.75179741,36.0348869 8.99449259,35.6203186 9.31233304,35.2782946 C9.63017349,34.9362707 10.0171039,34.6745745 10.4731358,34.4931981 C10.9291678,34.3118218 11.4473781,34.221135 12.0277824,34.221135 Z M14.2146519,38.12848 C14.2146519,37.5722593 14.1248288,37.0903236 13.9451799,36.6826587 C13.7655309,36.2749938 13.5090168,35.9666586 13.1756298,35.757644 C12.8422428,35.5486294 12.4596308,35.4441236 12.0277824,35.4441236 C11.7203063,35.4441236 11.4361543,35.5019904 11.1753179,35.6177258 C10.9144814,35.7334612 10.6899236,35.9018795 10.5016377,36.1229859 C10.3133518,36.3440923 10.1647981,36.626517 10.0559723,36.9702683 C9.94714652,37.3140197 9.89273443,37.7000864 9.89273443,38.12848 C9.89273443,38.5603285 9.94714652,38.9507136 10.0559723,39.2996471 C10.1647981,39.6485807 10.3185339,39.9379148 10.5171841,40.1676581 C10.7158344,40.3974015 10.943847,40.5692746 11.2012286,40.6832826 C11.4586103,40.7972906 11.7410349,40.8542937 12.048511,40.8542937 C12.4423568,40.8542937 12.8042404,40.7558338 13.1341726,40.5589109 C13.4641048,40.361988 13.7266647,40.0579712 13.9218602,39.6468515 C14.1170557,39.2357318 14.2146519,38.7296131 14.2146519,38.12848 Z M17.152934,41.1393123 L17.152934,35.1539229 C17.152934,34.842992 17.2237561,34.6097974 17.3654023,34.4543319 C17.5070486,34.2988665 17.6901496,34.221135 17.9147108,34.221135 C18.1461816,34.221135 18.333601,34.2980028 18.4769747,34.4517409 C18.6203483,34.6054789 18.6920341,34.8395372 18.6920341,35.1539229 L18.6920341,41.1393123 C18.6920341,41.4536979 18.6203483,41.6886199 18.4769747,41.8440854 C18.333601,41.9995508 18.1461816,42.0772824 17.9147108,42.0772824 C17.6936044,42.0772824 17.5113671,41.9986871 17.3679934,41.8414943 C17.2246197,41.6843015 17.152934,41.4502431 17.152934,41.1393123 Z M22.4180037,35.1435586 L25.3770144,39.6209408 L25.3770144,35.1021014 C25.3770144,34.8084444 25.4400633,34.588205 25.5661631,34.4413766 C25.6922628,34.2945481 25.8624085,34.221135 26.0766054,34.221135 C26.2977118,34.221135 26.4721759,34.2945481 26.6000031,34.4413766 C26.7278302,34.588205 26.7917428,34.8084444 26.7917428,35.1021014 L26.7917428,41.0771264 C26.7917428,41.7439004 26.5153639,42.0772824 25.962598,42.0772824 C25.8244065,42.0772824 25.700036,42.0574176 25.5894828,42.0176876 C25.4789296,41.9779575 25.3752875,41.9149086 25.2785535,41.8285389 C25.1818194,41.7421692 25.0919963,41.6411182 25.0090814,41.5253828 C24.9261665,41.4096474 24.8432528,41.2913228 24.7603379,41.1704052 L21.8738774,36.7448446 L21.8738774,41.196316 C21.8738774,41.4865181 21.8065101,41.7058938 21.6717734,41.8544497 C21.5370367,42.0030055 21.3642999,42.0772824 21.1535579,42.0772824 C20.9359062,42.0772824 20.7614421,42.0021419 20.6301602,41.8518586 C20.4988782,41.7015754 20.4332383,41.4830633 20.4332383,41.196316 L20.4332383,35.3352983 C20.4332383,35.0865536 20.4608762,34.8913611 20.5161528,34.7497148 C20.5817937,34.5942494 20.6906179,34.4672878 20.8426285,34.3688264 C20.9946392,34.2703649 21.1587391,34.221135 21.3349333,34.221135 C21.4731248,34.221135 21.5914495,34.2435907 21.6899109,34.288503 C21.7883724,34.3334152 21.8747408,34.3938731 21.9490187,34.4698784 C22.0232966,34.5458837 22.0993008,34.6443437 22.1770335,34.7652613 C22.2547662,34.8861788 22.3350888,35.0122767 22.4180037,35.1435586 Z M31.7199725,41.9477285 L29.3983669,41.9477285 C29.0632525,41.9477285 28.8240121,41.872588 28.6806384,41.7223047 C28.5372647,41.5720215 28.465579,41.332781 28.465579,41.0045762 L28.465579,35.2938411 C28.465579,34.9587267 28.5389921,34.7177589 28.6858206,34.5709304 C28.832649,34.424102 29.0701621,34.3506888 29.3983669,34.3506888 L31.8598907,34.3506888 C32.2226433,34.3506888 32.5370243,34.3731446 32.8030429,34.4180569 C33.0690616,34.4629691 33.3074383,34.5493375 33.5181804,34.6771646 C33.6978293,34.784263 33.8567471,34.9198614 33.9949386,35.0839638 C34.1331301,35.2480662 34.2384996,35.4294398 34.3110501,35.6280901 C34.3836006,35.8267404 34.4198754,36.0366156 34.4198754,36.257722 C34.4198754,37.0177752 34.0398545,37.5739877 33.2798012,37.926376 C34.2782348,38.2442164 34.7774441,38.8626141 34.7774441,39.7815876 C34.7774441,40.2065264 34.6686199,40.5891384 34.4509683,40.929435 C34.2333167,41.2697315 33.9396642,41.5210636 33.5700019,41.6834386 C33.3385311,41.7801726 33.0725165,41.8484036 32.77195,41.8881337 C32.4713835,41.9278638 32.1207278,41.9477285 31.7199725,41.9477285 Z M31.6059651,38.5741454 L30.0046791,38.5741454 L30.0046791,40.7921079 L31.6577866,40.7921079 C32.6976776,40.7921079 33.2176153,40.417269 33.2176153,39.6675802 C33.2176153,39.2840987 33.0828807,39.0059925 32.8134072,38.8332532 C32.5439338,38.6605138 32.1414571,38.5741454 31.6059651,38.5741454 Z M30.0046791,35.5063095 L30.0046791,37.4703463 L31.4142253,37.4703463 C31.7977067,37.4703463 32.0939503,37.4340716 32.3029649,37.3615211 C32.5119796,37.2889705 32.6717611,37.1507811 32.7823143,36.9469486 C32.868684,36.8018476 32.9118682,36.639475 32.9118682,36.459826 C32.9118682,36.0763446 32.7754061,35.8215579 32.5024779,35.6954581 C32.2295497,35.5693584 31.8132541,35.5063095 31.2535785,35.5063095 L30.0046791,35.5063095 Z M39.4517482,34.221135 C40.2394397,34.221135 40.9157042,34.3809165 41.4805619,34.7004843 C42.0454197,35.0200522 42.4729432,35.4743499 42.7631454,36.0633912 C43.0533475,36.6524324 43.1984464,37.3442432 43.1984464,38.1388444 C43.1984464,38.7261582 43.1189875,39.2599149 42.9600673,39.7401303 C42.8011471,40.2203458 42.5627703,40.6366414 42.2449298,40.9890298 C41.9270894,41.3414181 41.5367043,41.6108875 41.0737628,41.797446 C40.6108212,41.9840045 40.0805193,42.0772824 39.4828411,42.0772824 C38.8886176,42.0772824 38.3565884,41.9814134 37.8867373,41.7896727 C37.4168862,41.597932 37.0247737,41.327599 36.710388,40.9786654 C36.3960023,40.6297319 36.1584893,40.2099815 35.9978417,39.7194017 C35.837194,39.2288219 35.7568714,38.69852 35.7568714,38.12848 C35.7568714,37.544621 35.8406488,37.0091369 36.008206,36.5220119 C36.1757632,36.0348869 36.4184583,35.6203186 36.7362988,35.2782946 C37.0541392,34.9362707 37.4410696,34.6745745 37.8971016,34.4931981 C38.3531335,34.3118218 38.8713439,34.221135 39.4517482,34.221135 Z M41.6386177,38.12848 C41.6386177,37.5722593 41.5487946,37.0903236 41.3691456,36.6826587 C41.1894967,36.2749938 40.9329825,35.9666586 40.5995955,35.757644 C40.2662086,35.5486294 39.8835966,35.4441236 39.4517482,35.4441236 C39.1442721,35.4441236 38.8601201,35.5019904 38.5992836,35.6177258 C38.3384472,35.7334612 38.1138893,35.9018795 37.9256034,36.1229859 C37.7373175,36.3440923 37.5887639,36.626517 37.4799381,36.9702683 C37.3711123,37.3140197 37.3167002,37.7000864 37.3167002,38.12848 C37.3167002,38.5603285 37.3711123,38.9507136 37.4799381,39.2996471 C37.5887639,39.6485807 37.7424996,39.9379148 37.9411499,40.1676581 C38.1398002,40.3974015 38.3678127,40.5692746 38.6251944,40.6832826 C38.882576,40.7972906 39.1650007,40.8542937 39.4724768,40.8542937 C39.8663225,40.8542937 40.2282061,40.7558338 40.5581383,40.5589109 C40.8880705,40.361988 41.1506304,40.0579712 41.3458259,39.6468515 C41.5410214,39.2357318 41.6386177,38.7296131 41.6386177,38.12848 Z M50.1523309,40.7506506 L48.9241601,36.1955361 L47.6804428,40.7506506 C47.5837088,41.0961294 47.5068409,41.3440066 47.4498369,41.4942899 C47.3928329,41.6445731 47.2935093,41.7793078 47.151863,41.898498 C47.0102167,42.0176882 46.8219336,42.0772824 46.5870081,42.0772824 C46.3969948,42.0772824 46.240668,42.0418713 46.118023,41.9710482 C45.9953781,41.900225 45.8960544,41.8000377 45.8200491,41.6704832 C45.7440438,41.5409286 45.6818585,41.3871929 45.6334915,41.2092714 C45.5851245,41.0313498 45.5419403,40.8663862 45.5039376,40.7143755 L44.2394917,35.5995883 C44.1634864,35.3024765 44.1254843,35.0761914 44.1254843,34.9207259 C44.1254843,34.723803 44.194579,34.5579757 44.3327705,34.423239 C44.470962,34.2885023 44.6419714,34.221135 44.8458039,34.221135 C45.1256417,34.221135 45.3139248,34.3109581 45.4106588,34.490607 C45.5073929,34.670256 45.5920339,34.9310885 45.6645844,35.2731125 L46.6595583,39.7090374 L47.7737216,35.558131 C47.8566365,35.2402906 47.9309134,34.9984591 47.9965543,34.8326293 C48.0621953,34.6667995 48.1692921,34.523428 48.3178479,34.4025104 C48.4664038,34.2815928 48.6685058,34.221135 48.9241601,34.221135 C49.1832692,34.221135 49.3845075,34.2841839 49.5278812,34.4102836 C49.6712549,34.5363834 49.7705785,34.6737091 49.8258551,34.822265 C49.8811317,34.9708208 49.9554085,35.2161071 50.0486878,35.558131 L51.1732155,39.7090374 L52.1681893,35.2731125 C52.2165563,35.0416417 52.2623316,34.8602681 52.3055164,34.7289862 C52.3487013,34.5977043 52.4229781,34.4802432 52.5283491,34.3765996 C52.6337201,34.272956 52.7865922,34.221135 52.9869698,34.221135 C53.1873475,34.221135 53.3574933,34.2876386 53.4974121,34.4206479 C53.637331,34.5536573 53.7072894,34.7203482 53.7072894,34.9207259 C53.7072894,35.0623722 53.6692873,35.2886574 53.593282,35.5995883 L52.3288361,40.7143755 C52.2424664,41.0598543 52.1707807,41.3129137 52.1137767,41.4735613 C52.0567727,41.6342089 51.9600401,41.7749894 51.823576,41.8959069 C51.6871119,42.0168245 51.4945104,42.0772824 51.2457657,42.0772824 C51.0108401,42.0772824 50.822557,42.0185519 50.6809107,41.9010891 C50.5392645,41.7836263 50.4408045,41.6514827 50.3855279,41.5046542 C50.3302513,41.3578257 50.2525197,41.1064937 50.1523309,40.7506506 Z M56.2361812,35.1539229 L56.2361812,40.6832826 L59.3558387,40.6832826 C59.6045834,40.6832826 59.7954575,40.7437405 59.9284668,40.864658 C60.0614762,40.9855756 60.1279798,41.137584 60.1279798,41.3206877 C60.1279798,41.5072462 60.0623398,41.6583909 59.9310579,41.7741263 C59.799776,41.8898617 59.6080382,41.9477285 59.3558387,41.9477285 L55.6402334,41.9477285 C55.305119,41.9477285 55.0641512,41.8734517 54.9173227,41.7248958 C54.7704942,41.5763399 54.6970811,41.3362358 54.6970811,41.0045762 L54.6970811,35.1539229 C54.6970811,34.842992 54.7670395,34.6097974 54.9069584,34.4543319 C55.0468773,34.2988665 55.2308419,34.221135 55.4588579,34.221135 C55.6903287,34.221135 55.8777481,34.2980028 56.0211218,34.4517409 C56.1644954,34.6054789 56.2361812,34.8395372 56.2361812,35.1539229 Z" id="COINBOWL" fill="#0D0031"></path>
                <path d="M47.9826394,2.62773723e-05 C45.5669606,2.62773723e-05 43.6085956,1.95830365 43.6085956,4.37407007 C43.6085956,6.78974891 45.5669606,8.74811387 47.9826394,8.74811387 C50.3984058,8.74811387 52.3567708,6.78974891 52.3567708,4.37407007 C52.3567708,1.95830365 50.3984058,2.62773723e-05 47.9826394,2.62773723e-05" id="Fill-2" fill="#5522DD"></path>
                <path d="M34.2132788,22.3449022 C33.9771328,22.9047854 33.6059212,23.4542453 33.0996438,23.9933693 C32.5931912,24.532581 31.9466803,24.9705372 31.1598482,25.3069752 C30.3728409,25.6434131 29.4561109,25.8118511 28.4092204,25.8118511 C27.615381,25.8118511 26.8936292,25.7360847 26.2437022,25.585165 C25.5934248,25.4341577 25.0033226,25.1988 24.4732204,24.8794423 C23.9428555,24.5599971 23.4553226,24.1393839 23.0106219,23.6173401 C22.613746,23.1433839 22.2750307,22.6128438 21.9944759,22.0255445 C21.7139212,21.4382453 21.5034394,20.8116175 21.363381,20.1453109 C21.2229723,19.4791796 21.1529869,18.7716175 21.1529869,18.0229752 C21.1529869,16.8072088 21.3289577,15.7187124 21.6814248,14.7570482 C22.0338044,13.7954715 22.5385051,12.9729898 23.1953518,12.2895153 C23.8521985,11.6061285 24.622038,11.0858365 25.5046949,10.7286394 C26.3873518,10.3716175 27.3280818,10.1928438 28.3271474,10.1928438 C29.5450161,10.1928438 30.6295708,10.4367854 31.5806365,10.9244058 C32.5317022,11.4121139 33.2603737,12.0148292 33.7667387,12.7324642 C34.2731036,13.4502745 34.5263299,14.1284934 34.5263299,14.7672964 C34.5263299,15.1175737 34.4030891,15.4266832 34.1566949,15.6945372 C33.9104759,15.9623912 33.6128409,16.0963182 33.2638774,16.0963182 C32.8738336,16.0963182 32.5813664,16.0036467 32.3863883,15.8182161 C32.1913226,15.6326978 31.9740964,15.3133401 31.7346219,14.8599679 C31.337746,14.1114131 30.8707095,13.5515299 30.3336,13.1806686 C29.7964029,12.8097197 29.1344759,12.6242891 28.3476438,12.6242891 C27.095527,12.6242891 26.0981255,13.1018365 25.3558774,14.0564058 C24.6132788,15.0111504 24.2422423,16.3676759 24.2422423,18.1259825 C24.2422423,19.3004934 24.4064759,20.2775737 24.7349431,21.0570482 C25.0634102,21.8366978 25.5285197,22.4188292 26.1307095,22.8033547 C26.7328117,23.1881431 27.4375708,23.3803182 28.2449869,23.3803182 C29.1208117,23.3803182 29.8614832,23.1623912 30.4670015,22.7261869 C31.0726073,22.2900701 31.529308,21.6495153 31.8372788,20.8046978 C31.9670891,20.4064204 32.1279942,20.0818949 32.3196438,19.8310336 C32.5111182,19.580435 32.8190015,19.4550044 33.2432934,19.4550044 C33.6059212,19.4550044 33.9171328,19.5821869 34.1773664,19.8362015 C34.4373372,20.0903912 34.5673226,20.4064204 34.5673226,20.7841139 C34.5673226,21.2649022 34.4492496,21.7851942 34.2132788,22.3449022 Z M49.9426511,11.852873 C38.8366073,11.6726978 14.6423299,-9.5892 6.18819854,11.8560263 L6.18697226,11.8560263 L6.18697226,11.8591796 L6.18697226,11.8592672 C6.18907445,22.1017489 16.0500088,30.4120555 28.2088993,30.4120555 C40.3690161,30.4120555 50.2267095,22.1077051 50.2267095,11.8637343 L49.9426511,11.852873 Z" id="Fill-3" fill="#5522DD"></path>
            </g>
        </g>
    </g>
</svg>