<?xml version="1.0" encoding="UTF-8"?>
<svg width="415px" height="273px" viewBox="0 0 415 273" version="1.1" xmlns="http://www.w3.org/2000/svg" xmlns:xlink="http://www.w3.org/1999/xlink">
    <!-- Generator: Sketch 49.3 (51167) - http://www.bohemiancoding.com/sketch -->
    <title>Group</title>
    <desc>Created with Sketch.</desc>
    <defs></defs>
    <g id="Page-1" stroke="none" stroke-width="1" fill="none" fill-rule="evenodd">
        <g id="logo" transform="translate(-55.000000, 0.000000)" fill="#FFFFFF" fill-rule="nonzero">
            <g id="Group" transform="translate(55.000000, 0.000000)">
                <circle id="Oval" cx="374.96" cy="39.19" r="39.19"></circle>
                <path d="M392.52,106.22 C293,104.6 76.2,-85.92 0.45,106.22 C0.45,198 88.84,272.47 197.79,272.47 C306.74,272.47 395.08,198.11 395.08,106.31 L392.52,106.22 Z M251.57,200.22 C249.144317,205.700381 245.757619,210.702534 241.57,214.99 C237.691248,219.046386 233.141037,222.402378 228.12,224.91 C228.236393,225.394828 228.296787,225.891407 228.3,226.39 L228.3,248.72 C228.289021,252.18379 225.48379,254.989021 222.02,255 L213.87,255 C210.40621,254.989021 207.600979,252.18379 207.59,248.72 L207.59,230.87 C204.932396,231.148323 202.262137,231.288511 199.59,231.29 C196.59,231.29 193.8,231.16 191.07,230.93 L191.07,248.72 C191.059021,252.18379 188.25379,254.989021 184.79,255 L176.64,255 C173.17621,254.989021 170.370979,252.18379 170.36,248.72 L170.36,226.4 C170.36,226.28 170.36,226.17 170.36,226.05 C168.272735,225.149996 166.248191,224.110997 164.3,222.94 C159.347394,219.907401 154.922628,216.087241 151.2,211.63 C147.571188,207.280006 144.506892,202.488683 142.08,197.37 C139.530013,191.999325 137.633143,186.342288 136.43,180.52 C135.142713,174.269361 134.509303,167.901743 134.54,161.52 C134.385727,151.56372 135.990352,141.658379 139.28,132.26 C142.204205,124.022884 146.823661,116.490718 152.84,110.15 C157.85088,104.921509 163.779163,100.657484 170.33,97.57 L170.33,77.27 C170.340979,73.8062095 173.14621,71.0009788 176.61,70.99 L184.76,70.99 C186.430866,70.9846872 188.035408,71.6433455 189.22064,72.8210758 C190.405872,73.9988061 191.074704,75.5991335 191.08,77.27 L191.08,91.78 C193.666673,91.4910594 196.267243,91.3441723 198.87,91.34 C201.804206,91.3351885 204.736085,91.5054913 207.65,91.85 L207.65,77.27 C207.660979,73.8062095 210.46621,71.0009788 213.93,70.99 L222.08,70.99 C225.54379,71.0009788 228.349021,73.8062095 228.36,77.27 L228.36,98.07 C236.72,102.41 243.136667,107.743333 247.61,114.07 C252.083333,120.396667 254.353333,126.473333 254.42,132.3 C254.43513,135.394254 253.248434,138.373543 251.11,140.61 C249.096402,142.919871 246.174223,144.234852 243.11,144.21 C239.616667,144.21 236.996667,143.38 235.25,141.72 C233.503333,140.06 231.556667,137.196667 229.41,133.13 C225.863333,126.423333 221.68,121.423333 216.86,118.13 C212.04,114.836667 206.106667,113.17 199.06,113.13 C187.84,113.13 178.903333,117.406667 172.25,125.96 C165.596667,134.513333 162.263333,146.67 162.25,162.43 C162.25,172.95 163.723333,181.703333 166.67,188.69 C169.616667,195.676667 173.786667,200.893333 179.18,204.34 C184.845137,207.860151 191.411882,209.656452 198.08,209.51 C205.933333,209.51 212.57,207.556667 217.99,203.65 C223.41,199.743333 227.503333,194.003333 230.27,186.43 C231.211927,183.302084 232.672215,180.354464 234.59,177.71 C236.31,175.463333 239.07,174.34 242.87,174.34 C246.006713,174.296029 249.027056,175.526539 251.24,177.75 C253.544239,179.968283 254.810595,183.052532 254.73,186.25 C254.622166,191.074432 253.547635,195.828213 251.57,200.23 L251.57,200.22 Z" id="Shape"></path>
            </g>
        </g>
    </g>
</svg>