<?xml version="1.0" encoding="UTF-8"?>
<svg width="75px" height="58px" viewBox="0 0 75 58" version="1.1" xmlns="http://www.w3.org/2000/svg" xmlns:xlink="http://www.w3.org/1999/xlink">
    <!-- Generator: Sketch 51.3 (57544) - http://www.bohemiancoding.com/sketch -->
    <title>Group</title>
    <desc>Created with Sketch.</desc>
    <defs></defs>
    <g id="HOME" stroke="none" stroke-width="1" fill="none" fill-rule="evenodd">
        <g id="Home-Copy-10" transform="translate(-92.000000, -26.000000)" fill="#FFFFFF">
            <g id="Group-2-Copy" transform="translate(92.000000, 26.000000)">
                <g id="Group" transform="translate(0.000000, 0.000000)">
                    <path d="M8.52707099,54.2107437 C8.52707099,54.5130376 8.45257825,54.8401579 8.30359054,55.1921144 C8.15460283,55.5440708 7.92032857,55.8895444 7.60076073,56.2285454 C7.28119289,56.5675464 6.87310224,56.8428457 6.37647655,57.0544514 C5.87985085,57.2660571 5.30118263,57.3718584 4.64045453,57.3718584 C4.13951035,57.3718584 3.68391708,57.3243558 3.27366107,57.2293492 C2.86340506,57.1343425 2.49094138,56.9864366 2.15625884,56.7856271 C1.8215763,56.5848176 1.51388891,56.3203144 1.23318743,55.9921096 C0.98271534,55.6941342 0.768953572,55.3605363 0.591895715,54.9913058 C0.414837857,54.6220754 0.282046456,54.2280197 0.193517527,53.8091267 C0.104988599,53.3902337 0.0607247983,52.9454365 0.0607247983,52.4747217 C0.0607247983,51.71035 0.171924102,51.0258805 0.394326044,50.4212927 C0.616727987,49.8167049 0.935211429,49.2995741 1.34978592,48.8698849 C1.76436042,48.4401957 2.25018262,48.1130755 2.8072671,47.8885143 C3.36435158,47.6639531 3.95813426,47.5516742 4.58863297,47.5516742 C5.35732318,47.5516742 6.04179268,47.7049781 6.642062,48.0115905 C7.24233133,48.3182028 7.70224301,48.6971442 8.02181085,49.1484258 C8.34137869,49.5997074 8.50116021,50.0261513 8.50116021,50.4277704 C8.50116021,50.6480131 8.42342866,50.8423419 8.26796322,51.0107628 C8.11249779,51.1791837 7.92464654,51.2633929 7.70440384,51.2633929 C7.45825023,51.2633929 7.27363779,51.2050942 7.15056099,51.0884952 C7.02748419,50.9718961 6.89037437,50.7710896 6.73922742,50.4860696 C6.48875533,50.0153548 6.19402319,49.6634036 5.85502217,49.4302055 C5.51602115,49.1970073 5.09821406,49.08041 4.60158836,49.08041 C3.81130573,49.08041 3.18189608,49.3805401 2.71334053,49.9808095 C2.24478498,50.5810788 2.01051072,51.4339666 2.01051072,52.5394986 C2.01051072,53.2779594 2.11415279,53.8922546 2.32144004,54.3824026 C2.52872729,54.8725506 2.82237982,55.2385366 3.20240644,55.4803718 C3.58243306,55.7222069 4.02723027,55.8431226 4.53681142,55.8431226 C5.08957742,55.8431226 5.55704633,55.7060128 5.93923219,55.431789 C6.32141806,55.1575653 6.60967256,54.7548727 6.80400436,54.2236991 C6.88605556,53.973227 6.98753842,53.7691817 7.10845598,53.611557 C7.22937354,53.4539323 7.42370242,53.3751212 7.69144845,53.3751212 C7.92032812,53.3751212 8.11681621,53.4550119 8.28091861,53.6147959 C8.44502102,53.7745798 8.52707099,53.9732271 8.52707099,54.2107437 Z M14.434728,47.5516742 C15.4193424,47.5516742 16.2646731,47.7514011 16.9707452,48.1508609 C17.6768174,48.5503207 18.2112219,49.1181928 18.5739745,49.8544944 C18.9367272,50.590796 19.1181008,51.4555595 19.1181008,52.4488109 C19.1181008,53.1829532 19.0187772,53.8501491 18.8201269,54.4504184 C18.6214766,55.0506877 18.3235057,55.5710573 17.9262051,56.0115427 C17.5289046,56.4520281 17.0409232,56.7888648 16.4622463,57.0220629 C15.8835694,57.2552611 15.220692,57.3718584 14.4735942,57.3718584 C13.7308149,57.3718584 13.0657783,57.2520223 12.4784644,57.0123464 C11.8911505,56.7726705 11.4010099,56.4347542 11.0080278,55.9985873 C10.6150458,55.5624204 10.3181544,55.0377324 10.1173449,54.4245076 C9.91653537,53.8112828 9.81613211,53.1484054 9.81613211,52.4358555 C9.81613211,51.7060317 9.92085379,51.0366766 10.1303003,50.4277704 C10.3397468,49.8188641 10.6431157,49.3006537 11.0404163,48.8731238 C11.4377169,48.4455938 11.9213798,48.1184735 12.4914198,47.8917531 C13.0614597,47.6650327 13.7092226,47.5516742 14.434728,47.5516742 Z M17.1683149,52.4358555 C17.1683149,51.7405795 17.056036,51.13816 16.8314748,50.6285789 C16.6069136,50.1189977 16.286271,49.7335788 15.8695373,49.4723105 C15.4528035,49.2110422 14.9745385,49.08041 14.434728,49.08041 C14.0503829,49.08041 13.6951929,49.1527435 13.3691473,49.2974127 C13.0431018,49.442082 12.7624045,49.6526049 12.5270471,49.9289879 C12.2916897,50.2053709 12.1059977,50.5584017 11.9699654,50.9880909 C11.8339331,51.4177801 11.765918,51.9003635 11.765918,52.4358555 C11.765918,52.9756661 11.8339331,53.4636475 11.9699654,53.8998144 C12.1059977,54.3359813 12.2981673,54.6976489 12.5464802,54.9848282 C12.794793,55.2720074 13.0798087,55.4868487 13.4015358,55.6293587 C13.7232629,55.7718687 14.0762937,55.8431226 14.4606388,55.8431226 C14.952946,55.8431226 15.4053004,55.7200477 15.8177157,55.4738941 C16.230131,55.2277405 16.5583308,54.8477195 16.8023252,54.3338199 C17.0463196,53.8199203 17.1683149,53.1872718 17.1683149,52.4358555 Z M20.8411675,56.1993958 L20.8411675,48.7176591 C20.8411675,48.3289955 20.9296951,48.0375022 21.1067529,47.8431704 C21.2838108,47.6488386 21.512687,47.5516742 21.7933885,47.5516742 C22.082727,47.5516742 22.3170012,47.647759 22.4962183,47.8399316 C22.6754354,48.0321041 22.7650426,48.324677 22.7650426,48.7176591 L22.7650426,56.1993958 C22.7650426,56.5923779 22.6754354,56.8860304 22.4962183,57.0803622 C22.3170012,57.274694 22.082727,57.3718584 21.7933885,57.3718584 C21.5170055,57.3718584 21.2892089,57.2736144 21.1099918,57.0771233 C20.9307747,56.8806323 20.8411675,56.5880594 20.8411675,56.1993958 Z M27.4225047,48.7047037 L31.121268,54.3014314 L31.121268,48.6528822 C31.121268,48.285811 31.2000792,48.0105118 31.3577038,47.8269762 C31.5153285,47.6434406 31.7280107,47.5516742 31.9957567,47.5516742 C32.2721397,47.5516742 32.4902199,47.6434406 32.6500038,47.8269762 C32.8097877,48.0105118 32.8896785,48.285811 32.8896785,48.6528822 L32.8896785,56.1216635 C32.8896785,56.9551309 32.5442049,57.3718584 31.8532474,57.3718584 C31.6805081,57.3718584 31.525045,57.3470275 31.3868535,57.2973649 C31.248662,57.2477024 31.1191094,57.1688912 30.9981918,57.0609291 C30.8772743,56.952967 30.7649954,56.8266532 30.6613517,56.681984 C30.5577081,56.5373148 30.454066,56.3894089 30.3504224,56.238262 L26.7423468,50.7063112 L26.7423468,56.2706504 C26.7423468,56.6334031 26.6581376,56.9076228 26.4897167,57.0933176 C26.3212958,57.2790124 26.1053749,57.3718584 25.8419473,57.3718584 C25.5698828,57.3718584 25.3518026,57.2779328 25.1877002,57.0900787 C25.0235978,56.9022247 24.9415478,56.6290846 24.9415478,56.2706504 L24.9415478,48.9443784 C24.9415478,48.6334475 24.9760952,48.3894568 25.0451909,48.212399 C25.1272421,48.0180672 25.2632724,47.8593653 25.4532857,47.7362885 C25.643299,47.6132117 25.8484239,47.5516742 26.0686666,47.5516742 C26.241406,47.5516742 26.3893119,47.5797439 26.5123887,47.6358842 C26.6354655,47.6920245 26.743426,47.7675968 26.8362734,47.8626035 C26.9291208,47.9576101 27.024126,48.0806851 27.1212919,48.2318321 C27.2184578,48.382979 27.3188611,48.5406013 27.4225047,48.7047037 Z M39.0499656,57.2099161 L36.1479586,57.2099161 C35.7290657,57.2099161 35.4300151,57.1159905 35.250798,56.9281364 C35.0715809,56.7402823 34.9819737,56.4412318 34.9819737,56.0309757 L34.9819737,48.8925569 C34.9819737,48.4736639 35.0737401,48.1724541 35.2572757,47.9889185 C35.4408113,47.8053829 35.7377026,47.7136165 36.1479586,47.7136165 L39.2248633,47.7136165 C39.6783042,47.7136165 40.0712804,47.7416863 40.4038037,47.7978265 C40.736327,47.8539668 41.0342979,47.9619273 41.2977254,48.1217113 C41.5222866,48.2555843 41.7209339,48.4250822 41.8936733,48.6302102 C42.0664127,48.8353382 42.1981245,49.0620553 42.2888126,49.3103681 C42.3795008,49.558681 42.4248442,49.821025 42.4248442,50.097408 C42.4248442,51.0474745 41.9498181,51.7427401 40.9997515,52.1832255 C42.2477935,52.580526 42.8718051,53.3535231 42.8718051,54.5022399 C42.8718051,55.0334135 42.7357749,55.5116785 42.4637104,55.9370492 C42.1916459,56.3624199 41.8245802,56.6765849 41.3625024,56.8795537 C41.0731639,57.0004712 40.7406456,57.08576 40.3649375,57.1354226 C39.9892294,57.1850852 39.5509098,57.2099161 39.0499656,57.2099161 Z M38.9074563,52.9929372 L36.9058488,52.9929372 L36.9058488,55.7653903 L38.9722333,55.7653903 C40.272097,55.7653903 40.9220192,55.2968418 40.9220192,54.3597307 C40.9220192,53.8803789 40.7536008,53.5327461 40.416759,53.3168219 C40.0799173,53.1008977 39.5768214,52.9929372 38.9074563,52.9929372 Z M36.9058488,49.1581423 L36.9058488,51.6131884 L38.6677816,51.6131884 C39.1471334,51.6131884 39.5174379,51.567845 39.7787062,51.4771568 C40.0399745,51.3864686 40.2397014,51.2137318 40.3778929,50.9589413 C40.485855,50.7775649 40.5398352,50.5745992 40.5398352,50.350038 C40.5398352,49.8706863 40.3692577,49.5522028 40.0280974,49.3945781 C39.6869371,49.2369535 39.1665676,49.1581423 38.4669731,49.1581423 L36.9058488,49.1581423 Z M48.7146852,47.5516742 C49.6992996,47.5516742 50.5446302,47.7514011 51.2507024,48.1508609 C51.9567746,48.5503207 52.491179,49.1181928 52.8539317,49.8544944 C53.2166844,50.590796 53.398058,51.4555595 53.398058,52.4488109 C53.398058,53.1829532 53.2987344,53.8501491 53.1000841,54.4504184 C52.9014338,55.0506877 52.6034629,55.5710573 52.2061623,56.0115427 C51.8088618,56.4520281 51.3208803,56.7888648 50.7422034,57.0220629 C50.1635265,57.2552611 49.5006491,57.3718584 48.7535514,57.3718584 C48.010772,57.3718584 47.3457354,57.2520223 46.7584216,57.0123464 C46.1711077,56.7726705 45.6809671,56.4347542 45.287985,55.9985873 C44.8950029,55.5624204 44.5981116,55.0377324 44.3973021,54.4245076 C44.1964925,53.8112828 44.0960893,53.1484054 44.0960893,52.4358555 C44.0960893,51.7060317 44.200811,51.0366766 44.4102575,50.4277704 C44.6197039,49.8188641 44.9230729,49.3006537 45.3203735,48.8731238 C45.717674,48.4455938 46.201337,48.1184735 46.771377,47.8917531 C47.3414169,47.6650327 47.9891798,47.5516742 48.7146852,47.5516742 Z M51.4482721,52.4358555 C51.4482721,51.7405795 51.3359932,51.13816 51.111432,50.6285789 C50.8868708,50.1189977 50.5662282,49.7335788 50.1494944,49.4723105 C49.7327607,49.2110422 49.2544957,49.08041 48.7146852,49.08041 C48.3303401,49.08041 47.9751501,49.1527435 47.6491045,49.2974127 C47.3230589,49.442082 47.0423617,49.6526049 46.8070043,49.9289879 C46.5716469,50.2053709 46.3859548,50.5584017 46.2499226,50.9880909 C46.1138903,51.4177801 46.0458752,51.9003635 46.0458752,52.4358555 C46.0458752,52.9756661 46.1138903,53.4636475 46.2499226,53.8998144 C46.3859548,54.3359813 46.5781245,54.6976489 46.8264374,54.9848282 C47.0747502,55.2720074 47.3597659,55.4868487 47.681493,55.6293587 C48.0032201,55.7718687 48.3562509,55.8431226 48.740596,55.8431226 C49.2329032,55.8431226 49.6852576,55.7200477 50.0976729,55.4738941 C50.5100881,55.2277405 50.838288,54.8477195 51.0822824,54.3338199 C51.3262767,53.8199203 51.4482721,53.1872718 51.4482721,52.4358555 Z M62.0904136,55.7135687 L60.5552001,50.0196756 L59.0005536,55.7135687 C58.879636,56.1454172 58.7835512,56.4552638 58.7122962,56.6431178 C58.6410412,56.8309719 58.5168866,56.9993903 58.3398288,57.148378 C58.1627709,57.2973657 57.927417,57.3718584 57.6337601,57.3718584 C57.3962435,57.3718584 57.200835,57.3275946 57.0475288,57.2390657 C56.8942226,57.1505368 56.770068,57.0253026 56.6750614,56.8633594 C56.5800547,56.7014163 56.5023232,56.5092466 56.4418644,56.2868447 C56.3814056,56.0644427 56.3274254,55.8582382 56.279922,55.6682249 L54.6993647,49.2747408 C54.604358,48.9033512 54.5568554,48.6204947 54.5568554,48.4261629 C54.5568554,48.1800093 54.6432238,47.9727251 54.8159632,47.8043042 C54.9887025,47.6358834 55.2024643,47.5516742 55.4572549,47.5516742 C55.8070521,47.5516742 56.042406,47.6639531 56.1633235,47.8885143 C56.2842411,48.1130755 56.3900424,48.4391161 56.4807305,48.8666461 L57.7244478,54.4115522 L59.117152,49.2229193 C59.2207957,48.8256187 59.3136417,48.5233293 59.3956929,48.3160421 C59.4777441,48.1087548 59.6116151,47.9295404 59.7973099,47.7783935 C59.9830048,47.6272465 60.2356323,47.5516742 60.5552001,47.5516742 C60.8790865,47.5516742 61.1306344,47.6304853 61.3098515,47.78811 C61.4890686,47.9457347 61.6132232,48.1173919 61.6823189,48.3030867 C61.7514147,48.4887815 61.8442607,48.7953893 61.9608598,49.2229193 L63.3665194,54.4115522 L64.6102366,48.8666461 C64.6706954,48.5773076 64.7279145,48.3505906 64.7818955,48.1864882 C64.8358766,48.0223858 64.9287226,47.8755595 65.0604364,47.746005 C65.1921502,47.6164505 65.3832402,47.5516742 65.6337123,47.5516742 C65.8841844,47.5516742 66.0968666,47.6348037 66.2717652,47.8010654 C66.4466638,47.967327 66.5341118,48.1756908 66.5341118,48.4261629 C66.5341118,48.6032207 66.4866092,48.8860772 66.3916025,49.2747408 L64.8110452,55.6682249 C64.7030831,56.1000733 64.6134758,56.4163975 64.5422209,56.6172071 C64.4709659,56.8180166 64.3500501,56.9939922 64.17947,57.1451391 C64.0088899,57.2962861 63.768138,57.3718584 63.4572071,57.3718584 C63.1635502,57.3718584 62.9281963,57.2984453 62.7511384,57.1516168 C62.5740806,57.0047884 62.4510056,56.8396088 62.3819099,56.6560732 C62.3128141,56.4725376 62.2156497,56.1583726 62.0904136,55.7135687 Z M69.6952265,48.7176591 L69.6952265,55.6293587 L73.5947984,55.6293587 C73.9057292,55.6293587 74.1443219,55.7049311 74.3105836,55.856078 C74.4768452,56.007225 74.5599748,56.1972354 74.5599748,56.4261151 C74.5599748,56.6593132 74.4779248,56.8482441 74.3138224,56.9929133 C74.14972,57.1375825 73.9100477,57.2099161 73.5947984,57.2099161 L68.9502917,57.2099161 C68.5313987,57.2099161 68.2301889,57.1170701 68.0466534,56.9313752 C67.8631178,56.7456804 67.7713514,56.4455502 67.7713514,56.0309757 L67.7713514,48.7176591 C67.7713514,48.3289955 67.8587994,48.0375022 68.033698,47.8431704 C68.2085966,47.6488386 68.4385524,47.5516742 68.7235724,47.5516742 C69.0129108,47.5516742 69.2471851,47.647759 69.4264022,47.8399316 C69.6056193,48.0321041 69.6952265,48.324677 69.6952265,48.7176591 Z" id="COINBOWL"></path>
                    <path d="M59.3782993,3.28467154e-05 C56.3587007,3.28467154e-05 53.9107445,2.44787956 53.9107445,5.46758759 C53.9107445,8.48718613 56.3587007,10.9351423 59.3782993,10.9351423 C62.3980073,10.9351423 64.8459635,8.48718613 64.8459635,5.46758759 C64.8459635,2.44787956 62.3980073,3.28467154e-05 59.3782993,3.28467154e-05" id="Fill-2"></path>
                    <path d="M42.1665985,27.9311277 C41.8714161,28.6309818 41.4074015,29.3178066 40.7745547,29.9917117 C40.1414891,30.6657263 39.3333504,31.2131715 38.3498102,31.633719 C37.3660511,32.0542664 36.2201387,32.2648139 34.9115255,32.2648139 C33.9192263,32.2648139 33.0170365,32.1701058 32.2046277,31.9814562 C31.391781,31.7926971 30.6541533,31.4985 29.9915255,31.0993029 C29.3285693,30.6999964 28.7191533,30.1742299 28.1632774,29.5216752 C27.6671825,28.9292299 27.2437883,28.2660547 26.8930949,27.5319307 C26.5424015,26.7978066 26.2792993,26.0145219 26.1042263,25.1816387 C25.9287153,24.3489745 25.8412336,23.4645219 25.8412336,22.528719 C25.8412336,21.0090109 26.0611971,19.6483905 26.501781,18.4463102 C26.9422555,17.2443394 27.5731314,16.2162372 28.3941898,15.3618942 C29.2152482,14.5076606 30.1775474,13.8572956 31.2808686,13.4107993 C32.3841898,12.9645219 33.5601022,12.7410547 34.8089343,12.7410547 C36.3312701,12.7410547 37.6869635,13.0459818 38.8757956,13.6555073 C40.0646277,14.2651423 40.9754672,15.0185365 41.6084234,15.9155803 C42.2413796,16.8128431 42.5579124,17.6606168 42.5579124,18.4591204 C42.5579124,18.8969672 42.4038613,19.283354 42.0958686,19.6181715 C41.7880949,19.9529891 41.4160511,20.1203978 40.9798467,20.1203978 C40.492292,20.1203978 40.126708,20.0045584 39.8829854,19.7727701 C39.6391533,19.5408723 39.3676204,19.1416752 39.0682774,18.5749599 C38.5721825,17.6392664 37.9883869,16.9394124 37.317,16.4758358 C36.6455036,16.0121496 35.8180949,15.7803613 34.8345547,15.7803613 C33.2694088,15.7803613 32.0226569,16.3772956 31.0948467,17.5705073 C30.1665985,18.763938 29.7028029,20.4595949 29.7028029,22.6574781 C29.7028029,24.1256168 29.9080949,25.3469672 30.3186788,26.3213102 C30.7292628,27.2958723 31.3106496,28.0235365 32.0633869,28.5041934 C32.8160146,28.9851788 33.6969635,29.2253978 34.7062336,29.2253978 C35.8010146,29.2253978 36.726854,28.9529891 37.4837518,28.4077336 C38.2407591,27.8625876 38.811635,27.0618942 39.1965985,26.0058723 C39.3588613,25.5080255 39.5599927,25.1023686 39.7995547,24.788792 C40.0388978,24.4755438 40.4237518,24.3187555 40.9541168,24.3187555 C41.4074015,24.3187555 41.7964161,24.4777336 42.121708,24.7952518 C42.4466715,25.1129891 42.6091533,25.5080255 42.6091533,25.9801423 C42.6091533,26.5811277 42.461562,27.2314927 42.1665985,27.9311277 Z M61.8283139,14.8160912 C47.9457591,14.5908723 17.7029124,-11.9865 7.13524818,14.8200328 L7.13371533,14.8200328 L7.13371533,14.8239745 L7.13371533,14.8240839 C7.13634307,27.6271861 19.4625109,38.0150693 34.6611241,38.0150693 C49.8612701,38.0150693 62.1833869,27.6346314 62.1833869,14.8296679 L61.8283139,14.8160912 Z" id="Fill-3"></path>
                </g>
            </g>
        </g>
    </g>
</svg>