<?xml version="1.0" encoding="UTF-8"?>
<svg id="Layer_1" data-name="Layer 1" xmlns="http://www.w3.org/2000/svg" viewBox="0 0 518.6 341.61"><defs><style>.cls-1{fill:#fff;}</style></defs><title>avatar-Dung-561x561</title><circle class="cls-1" cx="469.47" cy="49.13" r="49.13"/><path class="cls-1" d="M510.93,237.12c-124.75-2-396.51-240.85-491.47,0h0v0h0c0,115.05,110.79,208.4,247.36,208.4s247.32-93.28,247.32-208.35ZM334.25,355a63.22,63.22,0,0,1-12.51,18.52,61.2,61.2,0,0,1-16.87,12.43,7.64,7.64,0,0,1,.23,1.86v28a7.89,7.89,0,0,1-7.87,7.87H287a7.89,7.89,0,0,1-7.87-7.87V393.39a96.34,96.34,0,0,1-10.08.53c-3.71,0-7.26-.16-10.69-.45v22.29a7.89,7.89,0,0,1-7.87,7.87H240.28a7.89,7.89,0,0,1-7.87-7.87v-28c0-.15,0-.3,0-.44a64.58,64.58,0,0,1-7.59-3.9,67.25,67.25,0,0,1-16.43-14.17A84.87,84.87,0,0,1,197,351.39a93.87,93.87,0,0,1-7.09-21.12,116,116,0,0,1-2.36-23.84q0-20.49,5.93-36.69a78.24,78.24,0,0,1,17-27.71,73.8,73.8,0,0,1,21.92-15.76V200.84a7.89,7.89,0,0,1,7.87-7.87H250.5a7.89,7.89,0,0,1,7.87,7.87V219a89.64,89.64,0,0,1,9.76-.54,93.68,93.68,0,0,1,11,.63V200.84A7.89,7.89,0,0,1,287,193h10.22a7.89,7.89,0,0,1,7.87,7.87v26.08q15.72,8.16,24.13,20.08,8.53,12.11,8.54,22.86a14.92,14.92,0,0,1-4.16,10.41,13.13,13.13,0,0,1-10,4.52q-6.57,0-9.85-3.13t-7.32-10.76q-6.69-12.61-15.74-18.86t-22.31-6.25q-21.09,0-33.6,16.08t-12.51,45.71q0,19.8,5.53,32.93t15.68,19.61q10.14,6.5,23.75,6.48,14.76,0,25-7.34t15.39-21.59A36.66,36.66,0,0,1,313,326.74q3.22-4.23,10.37-4.23a14.49,14.49,0,0,1,10.5,4.29,14.27,14.27,0,0,1,4.38,10.64A45.37,45.37,0,0,1,334.25,355Z" transform="translate(-19.44 -103.98)"/></svg>
