<?xml version="1.0" encoding="UTF-8"?>
<svg width="270px" height="152px" viewBox="0 0 270 152" version="1.1" xmlns="http://www.w3.org/2000/svg" xmlns:xlink="http://www.w3.org/1999/xlink">
    <g id="HOME" stroke="none" stroke-width="1" fill="none" fill-rule="evenodd">
        <g id="Promotion-2" transform="translate(-309.000000, -261.000000)">
            <g id="Group-3" transform="translate(181.000000, 226.000000)">
                <g id="Group-60" transform="translate(0.000000, 4.000000)">
                    <g transform="translate(128.000000, 31.000000)">
                        <path d="M208.319227,104.00623 L266.632757,93.0528368 C269.305552,92.5513211 271.082559,95.7348553 269.249717,97.7384952 L240.565121,129.07959 C239.696038,130.031743 238.290454,130.274021 237.149479,129.670749 L206.508233,113.472035 C205.362403,112.868763 204.77735,111.567729 205.078373,110.315151 L206.088257,106.121317 C206.348011,105.040757 207.224377,104.212166 208.319227,104.00623" id="Fill-8" fill="#39DDE3"></path>
                        <path d="M95.165533,35.4349194 C97.0062136,31.8843179 95.7070525,27.5452215 92.2005317,25.5241099 L65.4742378,10.1342115 C64.636461,9.65208971 63.6845523,10.5617087 64.1580783,11.3905782 L81.2584382,38.3799 L52.5627618,55.5272867 C51.4530111,56.3466563 52.1013774,58.0780198 53.4903871,57.9972704 L86.9868888,56.0687831 C90.7071035,55.8550345 93.4244143,52.5443064 92.8318997,48.9438302 L92.5914942,47.4760899 C92.0184063,43.9848629 92.5890658,40.4033866 94.2233377,37.2494074 L95.165533,35.4349194 Z" id="Fill-10" fill="#FBB040"></path>
                        <path d="M216.032522,98.6738602 C198.115105,65.3158087 154.126974,-8.71084682 121.17276,0.84404542 C99.3322795,7.17742082 79.5476581,36.9557384 84.87838,60.9221666 C86.2086419,66.9021986 90.9080941,95.3889852 118.519492,110.802067 C141.697491,123.739308 175.021759,128.320588 198.821353,124.91387 C202.038168,124.453306 204.89944,122.837673 207.688153,121.724033 C216.770213,118.095562 220.681183,107.331991 216.032522,98.6738602" id="Fill-12" fill="#49EDF2"></path>
                        <path d="M132.45427,33.9183362 C134.15417,38.5860802 131.750425,43.7518524 127.082688,45.4542958 C122.41241,47.1541982 117.249186,44.7504498 115.546745,40.0801649 C113.844305,35.4124209 116.25059,30.2466486 120.918328,28.5467462 C125.588606,26.8443029 130.751829,29.2505922 132.45427,33.9183362" id="Fill-18" fill="#FFFFFF"></path>
                        <path d="M125.954402,32.7956054 C126.341896,35.808305 124.217095,38.5669525 121.201829,38.9544463 C118.191695,39.34194 115.433048,37.2145737 115.045554,34.2018741 C114.65806,31.1917406 116.785426,28.4330931 119.798126,28.0455994 C122.80826,27.6581056 125.566908,29.7829057 125.954402,32.7956054" id="Fill-20" fill="#2E3093"></path>
                        <path d="M234.458084,50.6931464 C212.691307,44.7963649 189.609824,43.7273434 169.974282,46.3508595 C156.484567,48.1554462 145.145527,51.6469293 136.042217,55.2021614 C135.160076,67.086444 148.236667,82.7221093 162.683857,89.0896525 C188.042383,100.270244 217.459245,76.7370601 233.452005,60.8292355 C236.739987,57.5584221 236.589318,53.9369891 234.458084,50.6931464" id="Fill-22" fill="#33C7CC"></path>
                        <path d="M115.98223,64.0123569 L3.42149784,73.2339609 C1.37094763,73.4014026 -0.15610917,75.2358739 0.0127596701,77.3288949 L5.28629232,142.90201 C5.43586186,144.743868 6.85918495,146.208983 8.66366913,146.3715 L114.071599,151.993108 C116.17281,152.121152 117.957995,150.449197 118.011068,148.299542 L119.998896,67.8906016 C120.051969,65.6375261 118.184762,63.8326033 115.98223,64.0123569" id="Fill-24" fill="#5522DD"></path>
                        <path d="M20.9987613,84.003795 L14.2590671,85.0056035 C14.1072047,85.0280879 13.9938427,85.182981 14.0002594,85.3628569 L14.671876,107.66746 C14.6761538,107.857329 14.8130438,108.007226 14.9798785,107.999731 L21.713156,107.72492 C21.8778518,107.717426 22.0061862,107.557536 21.9997695,107.365169 L21.9569914,105.931159 C21.9548525,105.838722 21.9206299,105.751283 21.8607406,105.688826 C21.8029901,105.626369 21.7281284,105.593891 21.6489888,105.59639 L21.6468499,105.59639 L16.5113356,105.841221 L16.2418333,96.8898998 L20.4405067,96.4951723 C20.5987858,96.4801826 20.7207034,96.3227913 20.7142867,96.1354206 L20.6736475,94.7413829 C20.6693697,94.6464484 20.6330083,94.5590088 20.5731189,94.4915554 C20.5110906,94.4315967 20.4255343,94.4041157 20.3485337,94.406614 L16.1798051,94.8263243 L15.9402475,86.8643204 L21.1164011,86.1298274 C21.2682635,86.1073429 21.3816255,85.9524499 21.3773477,85.772574 L21.3345696,84.3360656 C21.3302918,84.2386329 21.2917915,84.1461967 21.2276243,84.0837398 C21.165596,84.0187847 21.0800397,83.9888054 20.9987613,84.003795" id="Fill-26" fill="#FFFFFF"></path>
                        <path d="M27.8512091,87.9077066 L29.8467391,98.1879831 L26.5175131,98.4197933 L27.8512091,87.9077066 Z M28.7060781,83.0044179 L26.5576243,83.2815822 C26.4021935,83.3017396 26.2793531,83.4226841 26.2567906,83.5814236 L23.002773,107.601491 C22.9902383,107.704798 23.0203217,107.805585 23.0905162,107.886215 C23.1582038,107.961805 23.2559747,108.004639 23.3587596,107.9996 L25.0108378,107.941647 C25.1813102,107.934088 25.3216993,107.805585 25.3442618,107.634247 L26.2292142,100.687501 L30.3205521,100.427975 L31.6617689,107.409996 C31.6918523,107.581334 31.8422691,107.699759 32.0152485,107.694719 L33.6623129,107.636767 C33.7650977,107.631727 33.8603617,107.583853 33.9255423,107.500704 C33.988216,107.420075 34.0132855,107.316768 33.9932299,107.213461 L29.092148,83.2815822 C29.0545438,83.1026853 28.8966061,82.9741818 28.7060781,83.0044179 Z" id="Fill-28" fill="#FFFFFF"></path>
                        <path d="M42.1962649,89.5739867 C42.2133636,90.0577407 42.2548891,91.1929823 41.1459135,91.7204929 C40.9358432,91.8201608 40.5645562,91.9514307 39.9758708,92.0024801 L37.5576198,92.2091086 L37.2498425,83.4893833 L39.7731286,83.1830868 C40.2616641,83.1223137 40.7037888,83.0931426 41.1605695,83.2997712 C41.9251277,83.6862881 42.0277201,84.7850659 42.0619176,85.7890376 L42.1962649,89.5739867 Z M41.6955159,93.7794857 C41.861618,93.7162817 41.9617678,93.6652323 42.074131,93.6020283 L42.218249,93.5291005 C42.7092272,93.2422515 44.0185025,92.4813722 44.3873468,90.5974058 C44.492382,90.0237077 44.4679552,89.1266967 44.4630698,88.9516701 L44.3262799,85.0743459 C44.3067385,84.4714767 44.2505569,82.6409907 42.8655586,81.6248643 C41.8078791,80.8761397 40.679362,80.9490674 39.5142047,81.0924919 L35.2957003,81.6272953 C35.1222701,81.6491736 34.9952509,81.7998909 35.0001363,81.9749174 L35.8379747,105.671567 C35.8453028,105.858748 36.0016341,106.007035 36.1897203,105.999742 L37.7041805,105.943831 C37.889824,105.938969 38.0363847,105.78339 38.0314993,105.596209 L37.6309002,94.3045654 L39.428711,94.1611408 L43.7351519,105.506264 C43.7864481,105.639965 43.9207954,105.729909 44.067356,105.725048 L45.6721953,105.666705 C45.7821158,105.661844 45.8822656,105.608363 45.9433325,105.518419 C46.0043995,105.426044 46.0166129,105.314221 45.97753,105.212123 L41.6955159,93.7794857 Z" id="Fill-30" fill="#FFFFFF"></path>
                        <path d="M54.6269044,103.549676 L49.744067,103.760778 L49.0005897,81.3199189 C48.9983571,81.2274135 48.9581691,81.139652 48.8911892,81.0803536 C48.8242092,81.0186834 48.7371353,80.9878482 48.6522941,81.0044518 L47.2725074,81.1894626 C47.1139882,81.2108099 46.995657,81.3578698 47.0001223,81.528649 L47.8016489,105.679672 C47.8061142,105.864683 47.9512374,106.004627 48.1231526,105.999883 L54.7005823,105.753202 C54.8724975,105.748458 55.0064574,105.59191 54.9997594,105.411643 L54.9484081,103.867515 C54.9461754,103.779754 54.9104528,103.696736 54.8501709,103.635066 C54.7898889,103.578139 54.709513,103.544932 54.6269044,103.549676" id="Fill-32" fill="#FFFFFF"></path>
                        <path d="M63.6125134,78.0034789 L61.931554,78.2110311 C61.788178,78.2303383 61.6719941,78.331701 61.6398581,78.4668513 L58.8662751,89.8194733 L55.2892924,79.3115404 C55.2373804,79.1594964 55.0890604,79.0605471 54.9184925,79.0822676 L53.2993331,79.284993 C53.1979811,79.29706 53.1065172,79.3549816 53.0521332,79.4394505 C52.9977492,79.5263328 52.9853892,79.6301089 53.0175252,79.7266448 L57.8453394,93.4178491 L58.2532193,104.676349 C58.2581633,104.859767 58.4188432,105.006984 58.6091872,104.999744 L60.1096906,104.949063 C60.2975626,104.941822 60.4458825,104.784952 60.4409385,104.601533 L60.0330586,93.2851122 L63.9882572,78.4209967 C64.0179212,78.3123938 63.9907292,78.1989641 63.9140972,78.1144952 C63.8399373,78.0324397 63.7385853,77.9865852 63.6125134,78.0034789" id="Fill-34" fill="#FFFFFF"></path>
                        <path d="M75.5946913,88.5261785 C75.22934,88.7040907 75.0632712,88.7858341 74.3657822,88.8531522 L73.3472269,88.9493209 L73.0460889,79.637784 L74.496423,79.4454466 C75.4529793,79.318023 76.2700378,79.2987893 76.5866756,80.3374115 C76.6508889,80.5417701 76.7328161,80.9649125 76.7593871,81.808793 L76.8723139,85.2131659 C76.9033134,85.9897284 76.9763837,87.8097215 75.5946913,88.5261785 Z M73.4490825,91.2549661 L74.5539935,91.1563932 C76.0463984,91.0193528 77.146881,91.2669872 77.6340161,92.8706007 C77.7912279,93.435592 77.8310844,94.0510718 77.8487984,94.6304884 L77.9750107,98.5060881 C78.0370097,100.400612 77.9727965,101.297385 77.4303051,101.934503 C77.0981675,102.287923 76.7306019,102.499494 75.8316161,102.537962 L73.8188623,102.629322 L73.4490825,91.2549661 Z M77.4125911,89.5792261 C77.941797,89.2065723 78.5130736,88.5430081 78.7499984,87.3144526 C78.8917105,86.624442 78.8540682,85.7517108 78.8363542,85.3526106 L78.7057134,81.2726524 C78.6724997,80.2556681 78.5462874,78.9670072 77.8665124,78.0197452 C76.9409557,76.7551265 75.5481921,76.9907398 75.0876279,77.070079 L71.2680456,77.6014113 C71.1130481,77.620645 70.9956928,77.7721107 71.0001213,77.9428102 L71.8658933,104.677716 C71.872536,104.862841 72.0142481,105.00469 72.1847454,104.999881 L76.1969675,104.846011 C76.2301812,104.846011 76.2656093,104.846011 76.3032515,104.843607 C76.8700997,104.821969 78.0967945,104.706567 79.064422,103.463586 C79.064422,103.461182 79.0666363,103.458777 79.0688505,103.456373 C80.0032643,102.194159 80.0320495,100.626608 79.9877645,99.2586084 L79.8371955,94.5463408 C79.7929105,93.1639153 79.73534,91.4424952 78.6879994,90.3485759 C78.4311464,90.0793035 78.0259385,89.7739678 77.4125911,89.5792261 Z" id="Fill-36" fill="#FFFFFF"></path>
                        <path d="M85.1497715,76.0036977 L84.1822509,76.2033011 C84.0754174,76.2252087 83.9956684,76.3761284 84.0001825,76.5513899 L84.6110897,104.673561 C84.6156038,104.858559 84.7119045,105.007044 84.8277662,104.999742 L85.7982962,104.94619 C85.9141579,104.938887 86.0029351,104.780665 85.9999257,104.595667 L85.3845044,76.3274446 C85.3829997,76.2325113 85.3559151,76.1424464 85.3107742,76.0815917 C85.2671379,76.0183028 85.20695,75.9890925 85.1497715,76.0036977" id="Fill-38" fill="#FFFFFF"></path>
                        <path d="M95.1443588,85.3093689 C95.1660007,85.9127879 95.2164984,87.319951 94.1079529,87.9453569 C93.905962,88.0626205 93.5452639,88.2092 92.9753609,88.2605028 L90.5947534,88.4681571 L90.2268413,77.7800688 L92.7108489,77.4722518 C93.2687287,77.4062911 93.648664,77.41362 94.0526459,77.6457042 C94.8966794,78.1856054 94.9543911,79.8517257 94.9856516,80.7434176 L95.1443588,85.3093689 Z M95.0698145,90.0829745 L95.2116891,89.9950268 C95.6926199,89.660337 96.9646819,88.775974 97.3133567,86.5479657 C97.4095429,85.868814 97.3782824,84.8012267 97.3710684,84.5960154 L97.2099566,79.9225724 C97.1883147,79.2116619 97.1209844,77.0447283 95.7743781,75.8110175 C94.7235443,74.8777947 93.5548825,74.9388695 92.446337,75.083006 L88.2934995,75.6204642 C88.1227691,75.6424511 87.9953224,75.7939166 88.0001317,75.969812 L88.9956585,104.670077 C89.0004678,104.858188 89.1567703,105.004767 89.3419286,104.999881 L90.8328141,104.943693 C91.0155678,104.938807 91.1598471,104.780012 91.1526331,104.594345 L90.6789163,90.8647319 L92.4319091,90.7230383 L96.7650956,104.48441 C96.810784,104.628547 96.9454446,104.726266 97.0945332,104.72138 L98.6767955,104.665191 C98.7801957,104.660305 98.8787865,104.60656 98.9389028,104.521055 C98.9990192,104.433107 99.0158518,104.323173 98.9845913,104.22301 L94.6586187,90.3126158 C94.8461817,90.229554 94.9543911,90.1587073 95.0698145,90.0829745 Z" id="Fill-40" fill="#FFFFFF"></path>
                        <path d="M107.314559,86.2831374 L107.583103,93.308007 C107.758588,97.9551906 107.370395,99.9714289 106.048946,101.291819 C105.307126,101.992585 104.541376,102.295021 103.414023,102.336821 L102.440883,102.373703 L101.465084,76.7281346 L102.369094,76.6273226 C102.507354,76.6150285 103.270445,76.6002755 103.913887,76.7305934 C104.373869,76.8461583 105.517175,77.2715354 106.211136,78.72962 C107.099192,80.6155405 107.245429,84.4439346 107.314559,86.2831374 M107.609692,76.0986748 C105.881438,73.7996713 103.480494,73.8709772 101.366707,74.1193188 L99.3220493,74.3602839 C99.130612,74.3848721 98.9923517,74.5373194 99.0003282,74.7118962 L100.138317,104.672707 C100.146294,104.862036 100.31646,105.007107 100.521192,104.999731 L103.648002,104.898919 C104.086713,104.884166 104.929569,104.822695 105.631506,104.559601 C106.801401,104.171106 107.593739,103.379364 108.093603,102.811374 C109.79261,100.782842 109.968094,98.1150143 109.997341,95.7717519 C110,95.7717519 110,95.7692931 110,95.7668343 C109.994682,94.802974 109.962776,93.9276315 109.925552,93.0104889 L109.667643,86.1700314 C109.473547,81.0999295 109.103967,78.1493367 107.609692,76.0986748" id="Fill-42" fill="#FFFFFF"></path>
                        <path d="M74,74.4986945 C74,75.8798956 72.8798956,77 71.5013055,77 C70.1201044,77 69,75.8798956 69,74.4986945 C69,73.1174935 70.1201044,72 71.5013055,72 C72.8798956,72 74,73.1174935 74,74.4986945" id="Fill-44" fill="#D1D3D4"></path>
                        <path d="M47,74.4986945 C47,75.8798956 45.8825065,77 44.5013055,77 C43.1201044,77 42,75.8798956 42,74.4986945 C42,73.1201044 43.1201044,72 44.5013055,72 C45.8825065,72 47,73.1201044 47,74.4986945" id="Fill-46" fill="#D1D3D4"></path>
                        <path d="M43.9824419,76 C43.8325009,76 43.6777231,75.9628419 43.5326189,75.8885256 C43.0513566,75.633373 42.8603028,75.0264566 43.1093983,74.5310147 C54.9305531,51 56.3670846,51 57.0563295,51 C57.6851143,51 59.1603402,51 71.8763042,74.5037654 C72.1399101,74.9917757 71.9682035,75.6036465 71.4941965,75.8736623 C71.0153526,76.1436782 70.4204255,75.9653191 70.1568195,75.4822632 C64.9427422,65.8459176 58.9209183,55.4565002 57.0684215,53.2839873 C55.2884767,55.4787951 49.6826182,65.8483948 44.8579038,75.4525367 C44.6837788,75.799346 44.3379471,76 43.9824419,76" id="Fill-48" fill="#D1D3D4"></path>
                        <path d="M37.2665731,139.098535 C36.0037515,140.378968 34.0922042,141.131008 30.1075055,140.981091 C25.3771187,140.799226 22.7175747,139.489301 21.3370128,137.375726 C20.4435723,135.938004 20.219635,134.114432 20.0718825,132.580861 C20.0026236,131.880433 19.9703027,131.531447 19.9010438,130.833476 C22.7891423,130.870341 24.2320373,130.892459 27.1201358,130.931782 C27.1986293,131.877975 27.237876,132.3523 27.3140609,133.300951 C27.3694681,133.971888 27.507986,135.665206 29.6226928,135.716816 C31.6519803,135.768427 31.822819,134.620707 31.7535601,133.679429 C31.6635234,132.443233 31.5804127,131.794415 31.2433524,131.285683 C30.8185642,130.646695 30.0497897,130.118301 28.6876969,129.174566 C26.8407913,127.901506 25.9127213,127.272349 24.0450381,126.026323 C23.2231651,125.478268 22.4012921,124.976908 21.6094314,124.355124 C20.2496472,123.229523 19.3908361,121.993328 19.0860967,118.830339 C19.0422327,118.373217 18.9660478,117.4516 19.0168377,116.296507 C19.0607017,115.266754 19.1299607,112.509276 22.163503,111.105961 C23.7864713,110.341633 26.2636334,110.078665 28.0366627,110.019682 C29.4587799,109.968071 30.7608484,110.007394 32.1968174,110.265446 C34.8055715,110.727484 35.7775055,112.047239 36.3246513,113.069619 C37.3773875,115.08243 37.3820047,117.515499 37.4651155,119.683141 C34.6555104,119.715091 33.2495536,119.734752 30.4399485,119.769159 C30.3799241,118.916356 30.3476032,118.491184 30.2852702,117.638381 C30.1721472,116.104811 29.9274322,115.12421 27.9927987,115.170905 C27.7734786,115.175821 27.2840487,115.188109 26.8292482,115.537095 C26.1251154,116.060573 26.3005715,117.114903 26.3629045,117.87923 C26.4275462,118.680422 26.4460153,119.442292 26.974692,120.066534 C27.1663084,120.322129 27.4456529,120.531029 28.0020332,120.904591 C30.6592686,122.592993 31.9774974,123.450711 34.595486,125.190723 C34.9579412,125.404539 35.943727,126.009119 36.8579453,126.871752 C38.1369274,128.090744 38.7718012,129.439991 38.961109,132.740608 C39.0973183,135.131897 38.9518744,137.390472 37.2665731,139.098535" id="Fill-50" fill="#FFFFFF"></path>
                        <path d="M51.1610968,115.1567 C50.4942159,120.767249 50.1713796,123.561484 49.5469152,129.120515 C51.2105827,129.135235 52.0447729,129.142594 53.7107969,129.15486 C52.7116538,123.529592 52.2002999,120.727998 51.1610968,115.1567 M55.8528278,141.74241 C55.3626821,138.835327 55.1152528,137.387918 54.6133248,134.490647 C52.3393316,134.446489 51.2035133,134.42441 48.9295201,134.377798 C48.6113967,137.218645 48.4558698,138.636615 48.1495287,141.465195 C45.2887746,141.362159 43.8607541,141.308188 41,141.205152 C42.7508569,129.032199 43.6958012,122.857406 45.7294344,110.336093 C49.8603256,110.201165 51.9269494,110.134928 56.0554841,110 C58.9775064,122.626802 60.365467,129.027292 63,142 C60.1416024,141.896964 58.7135818,141.845446 55.8528278,141.74241" id="Fill-52" fill="#FFFFFF"></path>
                        <path d="M65.3493772,141.462978 C65.2091342,128.581774 65.140243,122.135069 65,109.253865 C68.255113,109.151343 69.8814393,109.100081 73.1365524,109 C73.1021067,119.772172 73.0848839,125.16192 73.0528987,135.936534 C76.2317392,136.009764 77.8211595,136.043938 81,136.114727 C80.9606336,138.46786 80.9409503,139.646867 80.9015839,142 C74.6816854,141.785191 71.5717361,141.677787 65.3493772,141.462978" id="Fill-54" fill="#FFFFFF"></path>
                        <path d="M84,142.447779 C84.2977037,129.283313 84.4453253,122.695078 84.7405686,109.528211 C91.6443412,109.316927 95.0962274,109.211285 102,109 C101.881903,111.388956 101.822854,112.584634 101.704757,114.973589 C98.0683434,115.045618 96.2501367,115.084034 92.6161837,115.153661 C92.5079278,118.238896 92.4537999,119.782713 92.3430837,122.867947 C95.7285402,122.85114 97.4212685,122.841537 100.806725,122.822329 C100.688628,125.208884 100.632039,126.404562 100.513942,128.793517 C97.1629306,128.771909 95.4849645,128.762305 92.133953,128.740696 C92.0207764,131.962785 91.9641881,133.57383 91.8485511,136.793517 C95.352105,136.870348 97.1038819,136.908764 100.607436,136.985594 C100.489338,139.393758 100.427829,140.596639 100.307272,143 C93.7848551,142.781513 90.5224166,142.671068 84,142.447779" id="Fill-56" fill="#FFFFFF"></path>
                        <path d="M57.354089,53 L50.5966923,57.2494769 C49.4199289,58.1591347 50.1085154,60.0868688 51.5756156,59.9969608 L61,58.9048425 L57.354089,53 Z" id="Fill-58" fill="#FBB040"></path>
                    </g>
                </g>
            </g>
        </g>
    </g>
</svg>
