<?xml version="1.0" encoding="UTF-8"?>

<svg width="458px" height="180px" viewBox="0 0 458 180" version="1.1" xmlns="http://www.w3.org/2000/svg" xmlns:xlink="http://www.w3.org/1999/xlink">
    <defs>
        <path d="M55.8954172,0.642880952 L33.1527417,0.642880952 C20.7949139,0.642880952 10.2943576,11.6375476 8.31692715,23.877381 C8.10627815,25.1727381 0.0289271523,93 0.0289271523,93 L55.8954172,93 L111.763391,93 C111.763391,93 102.370225,30.6877857 100.393536,18.4472143 C98.416106,6.20738095 90.9988874,0.642880952 78.6380927,0.642880952 L55.8954172,0.642880952 Z" id="path-1"></path>
        <path d="M51.8766857,0.733179487 L30.7587429,0.733179487 C19.2823429,0.733179487 12.3953143,5.93012821 10.5582286,17.3628205 C8.72262857,28.7962564 0,87 0,87 L51.8766857,87 L103.754857,87 C103.754857,87 95.0337143,28.7962564 93.1966286,17.3628205 C91.3595429,5.93012821 84.4725143,0.733179487 72.9961143,0.733179487 L51.8766857,0.733179487 Z" id="path-3"></path>
        <path d="M382.379366,88.272343 C381.320081,88.4482158 376.691191,89.867071 371.077351,93.4283087 C373.533406,95.2627283 381.613707,100.27102 364.764011,104.476383 C354.617917,107.008356 339.737376,103.238595 339.737376,103.238595 C339.737376,103.238595 317.435891,106.577951 321.151938,128.841066 C322.600743,137.515229 320.130564,152.154965 318.550185,161.862844 C317.377909,169.072885 311.489027,171.139575 311.489027,171.139575 C311.489027,171.139575 294.020113,163.718784 286.21411,162.976705 C278.408851,162.234626 276.922135,165.2022 276.922135,165.2022 C276.922135,165.2022 269.001655,152.002839 267.259224,157.411112 C266.563441,159.572046 269.061867,164.765116 264.444127,166.096406 C259.825643,167.42918 263.170755,178.931406 263.170755,178.931406 L271.347693,179.673485 C271.347693,179.673485 274.86229,188.208137 278.002234,189.923824 C285.632061,194.095051 303.561857,203 303.561857,203 L409.118698,203 C409.118698,203 416.545588,139.389721 410.852209,123.770439 C408.231129,119.726108 402.6552,100.796412 400.022226,95.4608634 C397.473251,90.2959928 391.426777,88 385.732654,88 C384.590113,88 383.462439,88.0920178 382.379366,88.272343" id="path-5"></path>
        <path d="M55.8672318,0.642880952 L33.1238146,0.642880952 C20.765245,0.642880952 13.3480265,6.20738095 11.3698543,18.4472143 C9.39168212,30.6877857 0,93 0,93 L55.8672318,93 L111.734464,93 C111.734464,93 103.655629,25.1727381 103.446464,23.877381 C101.46755,11.6375476 90.9692185,0.642880952 78.6099073,0.642880952 L55.8672318,0.642880952 Z" id="path-7"></path>
        <path d="M51.8848571,0.733179487 L30.7669143,0.733179487 C19.2912571,0.733179487 12.4034857,5.93012821 10.5664,17.3628205 C8.72931429,28.7962564 0.00965714286,87 0.00965714286,87 L51.8848571,87 L103.763029,87 C103.763029,87 95.0404,28.7962564 93.2048,17.3628205 C91.3669714,5.93012821 84.4806857,0.733179487 73.0028,0.733179487 L51.8848571,0.733179487 Z" id="path-9"></path>
    </defs>
    <g id="HOME" stroke="none" stroke-width="1" fill="none" fill-rule="evenodd">
        <g id="Promotion-2" transform="translate(-766.000000, -249.000000)">
            <g id="Group-3" transform="translate(181.000000, 226.000000)">
                <g id="Group-12" transform="translate(585.000000, 0.000000)">
                    <g id="Group-69" transform="translate(33.000000, 0.000000)">
                        <path d="M264.100646,55.2481175 C262.259103,54.4602854 251.918531,57.019069 247.965789,63.3610802 C243.828074,75.5112183 251.710531,92.9608451 251.710531,92.9608451 L290.564931,82.829666 L308.057731,93.2147929 C307.530303,89.167222 306.94196,85.1337593 306.320931,81.127028 C292.566189,72.7935317 280.395217,62.2368787 264.100646,55.2481175 L215.291737,0.178951493" id="Fill-1" fill="#FFC457"></path>
                        <path d="M280.658931,40.3785108 C308.799103,44.6844847 300.42636,103.153358 300.42636,103.153358 L323.783274,99.0649474 C323.783274,99.0649474 324.055903,67.106884 313.918874,50.2230705 C308.710703,41.1091675 292.473331,36.0450631 280.658931,40.3785108" id="Fill-3" fill="#FFF58B"></path>
                        <path d="M347.455903,90.251772 C344.407217,91.1428168 341.187674,91.803675 337.870074,93.8159511 C336.282589,94.779022 330.806246,97.2910257 325.968017,99.0708877 C319.007446,90.8190705 313.698989,87.823675 306.861731,81.5603728 C301.117217,76.2965257 284.232817,66.8737272 280.03196,67.8679847 C270.335446,62.6947272 257.009331,61.5148354 257.009331,61.5148354 C257.009331,61.5148354 255.963389,69.1028243 257.603617,74.2946451 C258.885046,78.3511265 262.453731,82.8612981 262.142474,84.4971078 C260.734017,91.9469847 257.366646,95.8297123 257.957217,97.8412459 C258.55076,99.8527795 269.557674,98.4315631 269.557674,98.4315631 C269.557674,98.4315631 271.167446,99.7510519 271.807789,100.918321 C272.443674,102.081876 272.754931,103.401365 272.754931,103.401365 C272.754931,103.401365 275.00356,103.757783 278.317446,100.799515 C280.762931,98.6201675 283.827217,94.3023131 283.827217,94.3023131 L282.77756,106.808126 C282.77756,106.808126 290.481731,110.208947 292.936131,108.982276 C295.045103,107.928615 298.882703,98.0105444 299.279389,92.5024026 C302.516017,95.4628989 305.846246,99.047869 308.842931,103.313746 C308.037674,103.431809 307.261389,103.54022 306.55196,103.633037 C304.593046,104.675559 298.627903,111.800947 298.627903,111.800947 C298.627903,111.800947 305.436189,120.340126 313.607617,131.478186 C321.779046,142.616246 326.979046,133.334529 353.350474,124.052813 C379.721903,114.771097 347.473731,90.2970668 347.455903,90.251772" id="Fill-5" fill="#FFD4AB"></path>
                        <path d="M101.187469,62.7851683 C107.912554,58.0024854 107.838269,42.5332056 87.2499829,34.441034 C65.0838686,25.7295862 51.3343257,39.7286422 52.4931829,50.1702019 C54.0910686,64.5613175 59.9418114,78.9695116 59.9418114,78.9702541 L47.16764,108.773474 C47.16764,108.773474 47.2827829,109.994206 47.5918114,111.996829 C48.4245543,117.380224 50.6642686,128.409874 55.8962114,136.565903 C60.44324,143.648967 64.7948971,148.59575 68.1436971,148.59575 C70.2979829,148.59575 73.10524,144.586049 69.6219829,131.816635 C67.0955257,122.559422 61.8086114,114.615015 61.8086114,114.615015 C63.71404,107.271321 68.0701543,98.3259743 70.9308971,92.8883735 C73.5554114,97.5062131 76.4302686,99.3892877 77.8572971,99.6261571 C80.5947257,100.082818 88.12804,93.4682951 88.12804,93.4682951 C88.12804,93.4682951 82.0314114,83.9066422 83.1092971,83.0007466 C83.57804,82.6057168 85.7560971,85.2060825 88.3560971,86.7364519 C90.81644,88.1866272 93.7210114,88.5623511 93.7210114,88.5623511 L94.9749543,83.8836235 C94.9749543,83.8836235 103.877354,83.2019743 104.447869,81.4904257 C105.01764,79.7781347 94.4608971,67.5693362 101.187469,62.7851683" id="Fill-7" fill="#FFD4AB"></path>
                        <path d="M74.6477829,60.2334388 C74.0586971,58.5397112 73.8068686,57.2239351 73.8068686,57.2239351 C73.8068686,57.2239351 73.6813257,58.6852485 74.6477829,60.2334388" id="Fill-9" fill="#85603F"></path>
                        <path d="M95.212,33.0916209 C95.212,33.0916209 93.1639429,27.7223336 84.9984571,25.2519119 C78.4197143,23.2611694 71.5512571,23.6294679 65.0839429,25.7293634 C58.7347429,29.0128634 53.6781143,33.7190649 51.3344,39.7284194 C43.8256,59.2348746 53.6736571,78.3002627 70.8032,91.9859679 C77.0305714,90.8684493 81.5478857,89.0306694 81.5478857,89.0306694 L73.0733714,79.3747142 C73.0733714,79.3747142 82.6124,80.9518634 84.8276,75.7875164 C87.0398286,70.6216843 84.9018857,67.4777813 84.9018857,67.4777813 C84.9018857,67.4777813 82.3806286,70.5897552 77.7466857,65.7632627 C76.2639429,64.2180425 75.2685143,62.0156769 74.6474857,60.2335873 C73.6817714,58.685397 73.8073143,57.2240836 73.8073143,57.2240836 C73.8073143,57.2240836 74.0584,58.5391172 74.6474857,60.2335873 C75.2217143,61.152106 76.18,62.1010687 77.7808571,62.7931134 C82.8345143,64.9761731 87.6073714,64.2781881 87.6073714,64.2781881 C87.6073714,64.2781881 80.5026857,46.1736433 98.5868,50.853856 C111.7272,54.2539343 106.228571,67.9908746 106.228571,67.9908746 C106.228571,67.9908746 135.1116,50.3504157 115.855257,31.1372627 C107.743257,23.043606 95.212,33.0916209 95.212,33.0916209" id="Fill-11" fill="#49484A"></path>
                        <path d="M51.3341029,39.7287907 C53.6778171,33.7186937 58.7344457,29.0124922 65.0843886,25.7289922 C45.46256,32.0992198 29.5230743,54.441425 36.5103886,75.556216 C42.5015314,93.6615034 59.4899314,94.013466 70.8029029,91.9863392 C53.67336,78.2998914 43.8260457,59.2352459 51.3341029,39.7287907" id="Fill-13" fill="#0D0031"></path>
                        <path d="M263.704554,42.9338787 C258.177697,47.2903451 253.730211,52.0255056 251.221583,56.0864422 C249.787126,58.4083563 247.96564,63.3610802 247.96564,63.3610802 C247.96564,63.3610802 249.862897,61.6829459 257.009183,61.5143899 C277.131697,61.0436213 320.221869,95.9480728 320.221869,95.9480728 L330.889297,91.7705578 C330.889297,91.7705578 328.61244,74.9936698 322.743126,59.9936735 C311.138211,30.353069 281.516783,28.8984384 263.704554,42.9338787" id="Fill-15" fill="#FFDD9E"></path>
                        <path d="M263.240269,78.6554183 C262.757411,79.0994556 263.374726,80.5585414 264.620497,81.9129295 C265.868497,83.2658325 267.271754,84.0024295 267.756097,83.5576496 C268.238954,83.1121272 267.620154,81.6530414 266.37364,80.3001384 C265.12564,78.9472354 263.723869,78.2098959 263.240269,78.6554183" id="Fill-17" fill="#000000"></path>
                        <path d="M293.080023,77.8744918 C291.130023,77.8744918 289.551451,79.4538687 289.551451,81.401544 C289.551451,83.3492194 291.130023,84.9285963 293.080023,84.9285963 C295.028537,84.9285963 296.608594,83.3492194 296.608594,81.401544 C296.608594,79.4538687 295.028537,77.8744918 293.080023,77.8744918" id="Fill-19" fill="#7A8A7A"></path>
                        <path d="M293.080023,79.3087769 C291.923394,79.3087769 290.986651,80.245859 290.986651,81.401247 C290.986651,82.5573776 291.923394,83.4944597 293.080023,83.4944597 C294.235909,83.4944597 295.171909,82.5573776 295.171909,81.401247 C295.171909,80.245859 294.235909,79.3087769 293.080023,79.3087769" id="Fill-21" fill="#B2B9C9"></path>
                        <path d="M255.528,55.0305541 C254.360229,56.669334 250.147486,61.0911437 250.147486,61.0911437 C250.147486,61.0911437 257.009257,61.5143899 269.331771,66.1381698 C285.734057,72.292319 295.809429,86.9143638 302.405257,90.5884384 C302.64,90.7146698 302.909657,90.8334757 303.171886,90.9522817 C292.561657,66.2933601 281.194457,42.7222556 255.528,55.0305541" id="Fill-23" fill="#FFDD9E"></path>
                        <path d="M254.271531,56.2284896 C253.819131,56.943553 250.189531,60.1179 250.147189,61.0913664 C275.284731,64.9904299 286.98696,87.0846276 286.98696,87.0846276 C286.98696,87.0846276 281.352389,55.4592209 254.271531,56.2284896" id="Fill-25" fill="#FFDD9E"></path>
                        <path d="M95.0248,64.8452638 C93.7983429,66.2167302 93.2003429,67.6832414 93.6898857,68.122081 C94.1794286,68.560178 95.5715429,67.804275 96.8002286,66.4328086 C98.0274286,65.0613422 98.6246857,63.5940884 98.1344,63.156734 C97.6448571,62.7178944 96.252,63.4745399 95.0248,64.8452638" id="Fill-27" fill="#000000"></path>
                        <polygon id="Fill-29" fill="#FFBB00" points="260.52052 124.040116 262.327891 126.690231 259.675891 128.496825 260.880063 130.263321 265.29932 127.253075 262.287777 122.836463"></polygon>
                        <polygon id="Fill-31" fill="#FFBB00" points="213.908463 159.671808 215.112634 161.438304 222.740291 156.242028 221.53612 154.475532"></polygon>
                        <polygon id="Fill-33" fill="#FFBB00" points="229.164594 149.27985 230.368766 151.046346 237.996423 145.850813 236.792251 144.084316"></polygon>
                        <polygon id="Fill-35" fill="#FFBB00" points="244.41924 138.887966 245.623411 140.654462 253.252554 135.458929 252.048383 133.692432"></polygon>
                        <polygon id="Fill-37" fill="#FFBB00" points="203.62888 166.672227 201.821509 164.022854 200.054251 165.226507 203.065794 169.643862 207.485051 166.632873 206.280137 164.866376"></polygon>
                        <polygon id="Fill-39" fill="#FFBB00" points="179.266211 134.730054 184.46324 142.354427 186.230497 141.150032 181.033469 133.526401"></polygon>
                        <polygon id="Fill-41" fill="#FFBB00" points="168.87052 119.481234 174.069034 127.105607 175.835549 125.901211 170.637777 118.277581"></polygon>
                        <polygon id="Fill-43" fill="#FFBB00" points="189.660417 149.978206 194.857446 157.602579 196.624703 156.398184 191.427674 148.774553"></polygon>
                        <polygon id="Fill-45" fill="#FFBB00" points="165.080834 104.430299 160.661577 107.439803 163.67312 111.857157 165.440377 110.653504 163.635234 108.002646 166.285006 106.196796"></polygon>
                        <polygon id="Fill-47" fill="#FFBB00" points="172.708194 99.2340231 173.912366 101.000519 181.540023 95.8049858 180.335851 94.0384896"></polygon>
                        <polygon id="Fill-49" fill="#FFBB00" points="203.21756 78.4524086 204.421731 80.2189049 212.049389 75.0233713 210.845217 73.256875"></polygon>
                        <polygon id="Fill-51" fill="#FFBB00" points="187.96284 88.8428817 189.167754 90.609378 196.795411 85.4145869 195.59124 83.6480907"></polygon>
                        <polygon id="Fill-53" fill="#FFBB00" points="218.471537 68.0619354 219.677937 69.8284317 222.326966 68.0218384 224.13508 70.6726966 225.902337 69.4690437 222.890794 65.0502041"></polygon>
                        <polygon id="Fill-55" fill="#FFBB00" points="229.332183 78.2964757 234.529954 85.9208489 236.297211 84.7164534 231.09944 77.0928228"></polygon>
                        <polygon id="Fill-57" fill="#FFBB00" points="250.123491 108.792038 255.322749 116.416411 257.090006 115.212015 251.890749 107.588385"></polygon>
                        <polygon id="Fill-59" fill="#FFBB00" points="239.728543 93.544628 244.925571 101.169001 246.693571 99.9646056 241.495057 92.340975"></polygon>
                        <path d="M284.495863,137.828588 C282.865291,135.850469 280.909349,132.926357 281.110663,130.028234 C281.190149,128.900319 279.469691,128.519398 278.758034,130.872499 C278.287063,132.437767 279.140606,137.342226 279.140606,137.342226 C279.140606,137.342226 273.912377,135.797006 272.253577,135.32104 C268.382549,134.210204 260.350777,131.736069 258.443863,131.358118 C257.364491,131.143525 255.703463,132.154118 257.898606,133.244905 C261.681977,135.12204 271.520377,137.592461 270.77752,138.649092 C270.035406,139.707207 254.05952,134.719584 253.896091,136.891506 C253.734891,139.066398 269.769463,140.84923 269.256891,142.270446 C268.74432,143.693148 254.650834,140.847002 254.659006,142.54667 C254.663463,143.338215 261.965006,144.792846 264.150491,145.053476 C266.335977,145.314849 269.106834,145.336383 268.949349,146.248219 C268.79112,147.159312 261.254834,146.058129 258.925234,146.509592 C256.594891,146.96254 257.063634,148.059267 259.165177,148.163965 C260.155406,148.212972 272.387291,149.334946 273.439177,149.545084 C274.491063,149.756707 280.125634,151.416278 280.99552,151.731114 C282.63872,152.325144 291.087977,152.711263 291.087977,152.711263 L294.189406,145.170797 C294.189406,145.170797 286.93392,140.783144 284.495863,137.828588" id="Fill-61" fill="#FFD4AB"></path>
                        <path d="M184.064326,155.732128 C183.16324,155.749949 181.207297,156.196214 180.520154,156.255617 C179.83004,156.315762 171.071754,156.061815 171.071754,156.061072 C171.071754,156.061072 168.901869,156.247449 167.075926,155.82643 C166.124326,155.606639 165.555297,154.760147 164.81244,153.82752 C165.297526,153.43843 165.80044,153.069389 166.233526,152.856281 C167.242326,152.361751 171.098497,151.072706 171.513011,149.479221 C172.154097,147.02068 170.222669,145.932121 168.702783,147.253837 C167.18364,148.574811 163.50204,149.445807 163.50204,149.445807 C163.50204,149.445807 158.34884,150.128199 155.384097,151.869449 C153.51284,152.907516 151.644554,154.619807 150.203411,156.427885 L114.521754,181.970426 L99.6646114,150.783859 C99.6646114,150.783859 63.4183829,121.493732 75.3115257,150.364326 C80.5115257,162.98746 94.9771829,184.128982 98.3400971,187.491191 C103.540097,192.688953 105.025811,197.886714 109.482954,198.629251 C111.061526,198.892109 119.202497,195.970225 127.521754,190.138337 C139.830154,181.510053 150.145469,164.350759 154.259411,163.03721 C158.949811,163.3914 167.867069,165.131165 168.971697,164.944788 C171.164611,164.575747 171.497411,163.750788 173.171811,162.348135 C174.14644,161.529117 177.345183,160.609856 178.205411,160.375956 C179.06564,160.1428 180.355983,160.042557 180.908669,159.827221 C181.464326,159.612628 184.248554,159.011173 184.248554,159.011173 L187.473297,157.879546 C187.473297,157.879546 189.053354,155.629658 184.064326,155.732128" id="Fill-63" fill="#FFD4AB"></path>
                        <path d="M226.69296,156.724084 C224.737017,154.742251 221.384503,148.588845 220.845931,147.649535 C220.095646,146.344154 218.83576,145.679584 218.002274,145.281584 C215.061303,143.874475 214.562103,146.271386 214.67576,147.861158 C214.82136,149.883087 209.492846,147.830714 208.834674,147.172826 C208.17576,146.514196 206.830446,144.643001 207.071131,144.005162 C207.31256,143.367322 208.309474,141.589688 208.556103,140.747651 C209.925189,136.086744 206.979017,137.288912 206.979017,137.288912 L203.445989,142.156244 C203.445989,142.156244 202.645931,143.769035 202.64296,144.432863 C202.639989,145.096692 202.802674,146.497117 203.082731,147.276039 C203.963017,149.730867 205.136731,152.979468 205.696103,154.423703 C206.650674,156.899322 206.710103,158.096293 208.318389,159.450681 C209.053074,160.069957 218.904103,163.86655 223.350103,166.748337 C228.621417,170.164751 238.207246,176.401322 238.207246,176.401322 C240.143131,176.969363 238.950103,165.263263 238.950103,165.263263 C238.950103,165.263263 230.366389,160.447908 226.69296,156.724084" id="Fill-65" fill="#FFD4AB"></path>
                        <path d="M110.871429,149.299453 C110.871429,149.299453 97.4361143,147.442367 92.2361143,130.364009 C88.7588,118.9423 89.4437143,107.412923 63.6175429,104.398964 C61.9112,102.585688 60.1112571,100.764244 58.2504,99.011856 C50.1636571,91.4008485 34.8518857,90.8729045 33.0192571,95.5300985 C32.8023429,96.0818037 32.7117143,96.6684082 32.7302857,97.2787739 C25.8388,94.991759 20.6781714,94.0836358 16.0932571,98.8061731 C6.96577143,108.206696 0.493257143,141.502069 0.493257143,141.502069 C0.493257143,141.502069 23.2655429,121.259759 46.1797143,130.269707 C54.6356571,133.594789 54.9862857,180.137028 61.5687429,189.100196 C63.5135429,191.747341 72.4508571,157.699035 72.4508571,157.699035 L85.4530857,174.593987 C85.4530857,174.593987 97.6916571,178.208658 106.253086,166.797345 C112.9388,157.886897 110.871429,149.299453 110.871429,149.299453" id="Fill-67" fill="#3911A8"></path>
                    </g>
                    <g id="Group-72" transform="translate(2.000000, 110.000000)">
                        <mask id="mask-2" fill="white">
                            <use xlink:href="#path-1"></use>
                        </mask>
                        <g id="Clip-71"></g>
                        <path d="M55.8954172,0.642880952 L33.1527417,0.642880952 C20.7949139,0.642880952 10.2943576,11.6375476 8.31692715,23.877381 C8.10627815,25.1727381 0.0289271523,93 0.0289271523,93 L55.8954172,93 L111.763391,93 C111.763391,93 102.370225,30.6877857 100.393536,18.4472143 C98.416106,6.20738095 90.9988874,0.642880952 78.6380927,0.642880952 L55.8954172,0.642880952 Z" id="Fill-70" fill="#DCDCDE" mask="url(#mask-2)"></path>
                    </g>
                    <g id="Group-75" transform="translate(0.000000, 116.000000)">
                        <mask id="mask-4" fill="white">
                            <use xlink:href="#path-3"></use>
                        </mask>
                        <g id="Clip-74"></g>
                        <path d="M51.8766857,0.733179487 L30.7587429,0.733179487 C19.2823429,0.733179487 12.3953143,5.93012821 10.5582286,17.3628205 C8.72262857,28.7962564 0,87 0,87 L51.8766857,87 L103.754857,87 C103.754857,87 95.0337143,28.7962564 93.1966286,17.3628205 C91.3595429,5.93012821 84.4725143,0.733179487 72.9961143,0.733179487 L51.8766857,0.733179487 Z" id="Fill-73" fill="#F1F0F5" mask="url(#mask-4)"></path>
                    </g>
                    <mask id="mask-6" fill="white">
                        <use xlink:href="#path-5"></use>
                    </mask>
                    <g id="Clip-77"></g>
                    <path d="M382.379366,88.272343 C381.320081,88.4482158 376.691191,89.867071 371.077351,93.4283087 C373.533406,95.2627283 381.613707,100.27102 364.764011,104.476383 C354.617917,107.008356 339.737376,103.238595 339.737376,103.238595 C339.737376,103.238595 317.435891,106.577951 321.151938,128.841066 C322.600743,137.515229 320.130564,152.154965 318.550185,161.862844 C317.377909,169.072885 311.489027,171.139575 311.489027,171.139575 C311.489027,171.139575 294.020113,163.718784 286.21411,162.976705 C278.408851,162.234626 276.922135,165.2022 276.922135,165.2022 C276.922135,165.2022 269.001655,152.002839 267.259224,157.411112 C266.563441,159.572046 269.061867,164.765116 264.444127,166.096406 C259.825643,167.42918 263.170755,178.931406 263.170755,178.931406 L271.347693,179.673485 C271.347693,179.673485 274.86229,188.208137 278.002234,189.923824 C285.632061,194.095051 303.561857,203 303.561857,203 L409.118698,203 C409.118698,203 416.545588,139.389721 410.852209,123.770439 C408.231129,119.726108 402.6552,100.796412 400.022226,95.4608634 C397.473251,90.2959928 391.426777,88 385.732654,88 C384.590113,88 383.462439,88.0920178 382.379366,88.272343" id="Fill-76" fill="#8F6CF0"></path>
                    <g id="Group-89" transform="translate(221.000000, 92.000000)">
                        <path d="M35.582175,4.22526329 C32.877675,0.339263291 27.415425,-0.673167089 23.446425,1.9757443 L4.067925,14.9016684 C0.098925,17.5498456 -0.936075,22.8961241 1.769175,26.7828582 L14.972925,45.7503266 C17.678175,49.6370608 23.139675,50.648757 27.109425,48.0013139 L46.487925,35.0746557 C50.457675,32.4257443 51.493425,27.0802 48.786675,23.1949342 L35.582175,4.22526329 Z" id="Fill-79" fill="#FFA500"></path>
                        <path d="M29.1186,49.8646557 C26.93085,48.1253899 25.9506,46.4889089 25.08735,44.2041494 C24.22185,41.9215924 22.44735,42.5397696 22.34985,45.9228582 C22.2861,48.1165797 24.4596,50.8763519 25.65285,52.3146051 C26.76885,53.6625544 26.9136,54.5031873 26.9901,55.1588076 C27.04785,55.6543772 27.06885,56.0434911 27.44235,56.4649089 C29.9151,59.2511114 34.58685,57.3459215 33.2196,54.9495671 C31.94535,52.7154658 31.3056,51.6039215 29.1186,49.8646557" id="Fill-81" fill="#FFD4AB"></path>
                        <path d="M19.032375,24.4359139 C18.166125,24.4359139 17.463375,22.8750532 17.463375,20.9529772 C17.463375,19.0286987 18.166125,17.4700405 19.032375,17.4700405 C19.900125,17.4700405 20.602875,19.0286987 20.602875,20.9529772 C20.602875,22.8750532 19.900125,24.4359139 19.032375,24.4359139 M19.032375,16.6962177 C16.786875,16.6962177 14.965125,18.6014076 14.965125,20.9529772 C14.965125,23.3038127 16.786875,25.2090025 19.032375,25.2090025 C21.280875,25.2090025 23.100375,23.3038127 23.100375,20.9529772 C23.100375,18.6014076 21.280875,16.6962177 19.032375,16.6962177" id="Fill-83" fill="#FFFFFF"></path>
                        <polygon id="Fill-85" fill="#FFFFFF" points="21.472125 32.9076582 23.002875 32.9076582 29.239875 17.0927468 27.711375 17.0927468"></polygon>
                        <path d="M31.6806,32.5312456 C30.8136,32.5312456 30.1116,30.9718532 30.1116,29.0483089 C30.1116,27.1262329 30.8136,25.5653722 31.6806,25.5653722 C32.5461,25.5653722 33.2496,27.1262329 33.2496,29.0483089 C33.2496,30.9718532 32.5461,32.5312456 31.6806,32.5312456 M31.6806,24.7915494 C29.43435,24.7915494 27.61185,26.6974734 27.61185,29.0483089 C27.61185,31.3991443 29.43435,33.3058025 31.6806,33.3058025 C33.9261,33.3058025 35.74785,31.3991443 35.74785,29.0483089 C35.74785,26.6974734 33.9261,24.7915494 31.6806,24.7915494" id="Fill-87" fill="#FFFFFF"></path>
                    </g>
                    <g id="Group-92" transform="translate(344.000000, 110.000000)">
                        <mask id="mask-8" fill="white">
                            <use xlink:href="#path-7"></use>
                        </mask>
                        <g id="Clip-91"></g>
                        <path d="M55.8672318,0.642880952 L33.1238146,0.642880952 C20.765245,0.642880952 13.3480265,6.20738095 11.3698543,18.4472143 C9.39168212,30.6877857 0,93 0,93 L55.8672318,93 L111.734464,93 C111.734464,93 103.655629,25.1727381 103.446464,23.877381 C101.46755,11.6375476 90.9692185,0.642880952 78.6099073,0.642880952 L55.8672318,0.642880952 Z" id="Fill-90" fill="#DCDCDE" mask="url(#mask-8)"></path>
                    </g>
                    <g id="Group-95" transform="translate(354.000000, 116.000000)">
                        <mask id="mask-10" fill="white">
                            <use xlink:href="#path-9"></use>
                        </mask>
                        <g id="Clip-94"></g>
                        <path d="M51.8848571,0.733179487 L30.7669143,0.733179487 C19.2912571,0.733179487 12.4034857,5.93012821 10.5664,17.3628205 C8.72931429,28.7962564 0.00965714286,87 0.00965714286,87 L51.8848571,87 L103.763029,87 C103.763029,87 95.0404,28.7962564 93.2048,17.3628205 C91.3669714,5.93012821 84.4806857,0.733179487 73.0028,0.733179487 L51.8848571,0.733179487 Z" id="Fill-93" fill="#F1F0F5" mask="url(#mask-10)"></path>
                    </g>
                </g>
            </g>
        </g>
    </g>
</svg>
