<?xml version="1.0" encoding="UTF-8"?>
<svg width="20px" height="16px" viewBox="0 0 20 16" version="1.1" xmlns="http://www.w3.org/2000/svg" xmlns:xlink="http://www.w3.org/1999/xlink">
    <g id="HOME" stroke="none" stroke-width="1" fill="none" fill-rule="evenodd">
        <g id="Promotion" transform="translate(-207.000000, -1022.000000)" fill="#5522DD">
            <path d="M214.999981,1031.00001 C214.999981,1030.43751 215.192689,1029.96356 215.578105,1029.57814 C215.96352,1029.19272 216.437477,1029.00002 216.999976,1029.00002 C217.562475,1029.00002 218.036432,1029.19272 218.421848,1029.57814 C218.807263,1029.96356 218.999971,1030.43751 218.999971,1031.00001 C218.999971,1031.56251 218.807263,1032.03647 218.421848,1032.42188 C218.036432,1032.8073 217.562475,1033.00001 216.999976,1033.00001 C216.437477,1033.00001 215.96352,1032.8073 215.578105,1032.42188 C215.192689,1032.03647 214.999981,1031.56251 214.999981,1031.00001 Z M221.999964,1031.00001 C221.999964,1030.43751 222.192672,1029.96356 222.578088,1029.57814 C222.963503,1029.19272 223.437461,1029.00002 223.999959,1029.00002 C224.562458,1029.00002 225.036415,1029.19272 225.421831,1029.57814 C225.807247,1029.96356 225.999955,1030.43751 225.999955,1031.00001 C225.999955,1031.56251 225.807247,1032.03647 225.421831,1032.42188 C225.036415,1032.8073 224.562458,1033.00001 223.999959,1033.00001 C223.437461,1033.00001 222.963503,1032.8073 222.578088,1032.42188 C222.192672,1032.03647 221.999964,1031.56251 221.999964,1031.00001 Z M209.999993,1033.00001 C209.437494,1033.00001 208.963537,1032.8073 208.578121,1032.42188 C208.192706,1032.03647 207.999998,1031.56251 207.999998,1031.00001 C207.999998,1030.43751 208.192706,1029.96356 208.578121,1029.57814 C208.963537,1029.19272 209.437494,1029.00002 209.999993,1029.00002 C210.562492,1029.00002 211.036449,1029.19272 211.421864,1029.57814 C211.80728,1029.96356 211.999988,1030.43751 211.999988,1031.00001 C211.999988,1031.56251 211.80728,1032.03647 211.421864,1032.42188 C211.036449,1032.8073 210.562492,1033.00001 209.999993,1033.00001 Z M224.999957,1034 C225.562456,1034 226.036413,1034.19271 226.421829,1034.57813 C226.807244,1034.96354 226.999952,1035.4375 226.999952,1036 L226.999952,1037 C226.999952,1037.27083 226.900994,1037.5052 226.703078,1037.70312 C226.505162,1037.90104 226.270788,1038 225.999955,1038 L221.999964,1038 C221.729131,1038 221.494757,1037.90104 221.296841,1037.70312 C221.098925,1037.5052 220.999967,1037.27083 220.999967,1037 L220.999967,1036 C220.999967,1035.4375 221.192675,1034.96354 221.57809,1034.57813 C221.963506,1034.19271 222.437463,1034 222.999962,1034 L224.999957,1034 Z M217.999974,1034 C218.562472,1034 219.03643,1034.19271 219.421845,1034.57813 C219.807261,1034.96354 219.999969,1035.4375 219.999969,1036 L219.999969,1037 C219.999969,1037.27083 219.901011,1037.5052 219.703095,1037.70312 C219.505179,1037.90104 219.270804,1038 218.999971,1038 L214.999981,1038 C214.729148,1038 214.494774,1037.90104 214.296858,1037.70312 C214.098942,1037.5052 213.999983,1037.27083 213.999983,1037 L213.999983,1036 C213.999983,1035.4375 214.192691,1034.96354 214.578107,1034.57813 C214.963523,1034.19271 215.43748,1034 215.999979,1034 L217.999974,1034 Z M210.99999,1034 C211.562489,1034 212.036446,1034.19271 212.421862,1034.57813 C212.807278,1034.96354 212.999986,1035.4375 212.999986,1036 L212.999986,1037 C212.999986,1037.27083 212.901027,1037.5052 212.703111,1037.70312 C212.505195,1037.90104 212.270821,1038 211.999988,1038 L207.999998,1038 C207.729165,1038 207.49479,1037.90104 207.296874,1037.70312 C207.098958,1037.5052 207,1037.27083 207,1037 L207,1036 C207,1035.4375 207.192708,1034.96354 207.578124,1034.57813 C207.963539,1034.19271 208.437497,1034 208.999995,1034 L210.99999,1034 Z M209.999993,1024.00003 L209.999993,1028.00002 C209.249995,1028.00002 208.58333,1028.26043 207.999998,1028.78127 L207.999998,1023.56253 C207.999998,1023.12503 208.145831,1022.75524 208.437497,1022.45316 C208.729162,1022.15107 209.083329,1022.00003 209.499994,1022.00003 L224.499958,1022.00003 C224.916624,1022.00003 225.27079,1022.15107 225.562456,1022.45316 C225.854122,1022.75524 225.999955,1023.12503 225.999955,1023.56253 L225.999955,1028.78127 C225.416623,1028.26043 224.749958,1028.00002 223.999959,1028.00002 L223.999959,1024.00003 L209.999993,1024.00003 Z" id=""></path>
        </g>
    </g>
</svg>
