<?xml version="1.0" encoding="UTF-8"?>
<svg width="5px" height="20px" viewBox="0 0 5 20" version="1.1" xmlns="http://www.w3.org/2000/svg" xmlns:xlink="http://www.w3.org/1999/xlink">
    <!-- Generator: Sketch 52.5 (67469) - http://www.bohemiancoding.com/sketch -->
    <title>ellipsis-v-light</title>
    <desc>Created with Sketch.</desc>
    <g id="HOME" stroke="none" stroke-width="1" fill="none" fill-rule="evenodd">
        <g id="Home-Copy-7" transform="translate(-688.000000, -374.000000)" fill="#0D0031" fill-rule="nonzero">
            <g id="ellipsis-v-light" transform="translate(688.000000, 374.000000)">
                <path d="M2.10526316,7.89473684 C3.26973684,7.89473684 4.21052632,8.83552632 4.21052632,10 C4.21052632,11.1644737 3.26973684,12.1052632 2.10526316,12.1052632 C0.940789474,12.1052632 0,11.1644737 0,10 C0,8.83552632 0.940789474,7.89473684 2.10526316,7.89473684 Z M0,2.10526316 C0,3.26973684 0.940789474,4.21052632 2.10526316,4.21052632 C3.26973684,4.21052632 4.21052632,3.26973684 4.21052632,2.10526316 C4.21052632,0.940789474 3.26973684,0 2.10526316,0 C0.940789474,0 0,0.940789474 0,2.10526316 Z M0,17.8947368 C0,19.0592105 0.940789474,20 2.10526316,20 C3.26973684,20 4.21052632,19.0592105 4.21052632,17.8947368 C4.21052632,16.7302632 3.26973684,15.7894737 2.10526316,15.7894737 C0.940789474,15.7894737 0,16.7302632 0,17.8947368 Z" id="Shape"></path>
            </g>
        </g>
    </g>
</svg>