<?xml version="1.0" encoding="UTF-8"?>
<svg width="24px" height="24px" viewBox="0 0 24 24" version="1.1" xmlns="http://www.w3.org/2000/svg" xmlns:xlink="http://www.w3.org/1999/xlink">
    <g id="HOME" stroke="none" stroke-width="1" fill="none" fill-rule="evenodd">
        <g id="Home-Copy-5" transform="translate(-112.000000, -760.000000)">
            <g id="bch_b" transform="translate(112.000000, 760.000000)">
                <circle id="Oval" fill="#22CC77" cx="11.9733333" cy="11.9866667" r="11.9066667"></circle>
                <path d="M17.5066667,13.5733333 C17.2533333,13.04 16.7866667,12.6133333 16.12,12.2933333 C17.12,12.0266667 17.68,11.3333333 17.8133333,10.2 C17.8666667,9.78666667 17.8266667,9.42666667 17.7066667,9.09333333 C17.5866667,8.76 17.3866667,8.46666667 17.1066667,8.22666667 C16.8266667,7.98666667 16.52,7.77333333 16.1733333,7.6 C15.8266667,7.42666667 15.4133333,7.26666667 14.9466667,7.12 L15.44,4.82666667 L14.0266667,4.53333333 L13.5466667,6.76 C13.3066667,6.70666667 12.9333333,6.64 12.44,6.54666667 L12.92,4.30666667 L11.52,4 L11.0266667,6.29333333 C10.8266667,6.25333333 10.5333333,6.2 10.1466667,6.12 L8.22666667,5.69333333 L7.90666667,7.18666667 L8.92,7.4 C9.37333333,7.49333333 9.6,7.76 9.6,8.18666667 L9.04,10.7866667 C9.10666667,10.8 9.14666667,10.8133333 9.18666667,10.8266667 L9.04,10.8 L8.25333333,14.4533333 C8.13333333,14.7466667 7.93333333,14.8666667 7.62666667,14.8 L6.61333333,14.5866667 L5.97333333,16.1866667 L7.78666667,16.5733333 C7.90666667,16.6 8.06666667,16.64 8.28,16.68 C8.49333333,16.7333333 8.66666667,16.76 8.77333333,16.7866667 L8.28,19.1066667 L9.68,19.4 L10.1733333,17.1066667 C10.4266667,17.1733333 10.8,17.2533333 11.28,17.3466667 L10.7866667,19.6266667 L12.1866667,19.92 L12.68,17.6 C13.1866667,17.68 13.6266667,17.7333333 14.0266667,17.7466667 C14.4266667,17.76 14.8133333,17.7333333 15.2,17.6666667 C15.5866667,17.6 15.9066667,17.48 16.2,17.32 C16.48,17.16 16.7333333,16.9333333 16.96,16.64 C17.1866667,16.3466667 17.36,15.9866667 17.4933333,15.5733333 C17.76,14.7733333 17.76,14.0933333 17.5066667,13.5733333 Z M12.12,8.17333333 C12.16,8.18666667 12.28,8.21333333 12.48,8.24 C12.68,8.28 12.84,8.30666667 12.9733333,8.33333333 C13.1066667,8.36 13.28,8.4 13.4933333,8.46666667 C13.7066667,8.53333333 13.8933333,8.6 14.04,8.65333333 C14.1866667,8.72 14.3466667,8.8 14.5066667,8.90666667 C14.68,9.01333333 14.8,9.13333333 14.8933333,9.25333333 C14.9866667,9.37333333 15.04,9.52 15.0933333,9.69333333 C15.1333333,9.86666667 15.1333333,10.0533333 15.0933333,10.2533333 C15.0533333,10.4266667 15,10.5733333 14.9066667,10.6933333 C14.8266667,10.8266667 14.72,10.92 14.5866667,10.9866667 C14.4533333,11.0533333 14.3333333,11.12 14.2,11.16 C14.0666667,11.2 13.9066667,11.2266667 13.72,11.24 L13.2266667,11.24 C13.0933333,11.24 12.92,11.2133333 12.72,11.1866667 C12.52,11.1466667 12.36,11.12 12.2666667,11.1066667 C12.16,11.0933333 12.0266667,11.0533333 11.84,11.0133333 C11.6666667,10.9733333 11.56,10.9466667 11.5333333,10.9466667 L12.12,8.17333333 Z M14.6133333,15.1866667 C14.52,15.32 14.4266667,15.4133333 14.3066667,15.5066667 C14.2,15.5866667 14.0533333,15.6533333 13.8933333,15.7066667 C13.7333333,15.76 13.5733333,15.7866667 13.4266667,15.8 C13.28,15.8133333 13.1066667,15.8266667 12.8933333,15.8133333 C12.6933333,15.8133333 12.5066667,15.8 12.36,15.7733333 C12.2133333,15.76 12.0266667,15.7333333 11.8266667,15.6933333 C11.6133333,15.6533333 11.4533333,15.6266667 11.3466667,15.6 C11.2266667,15.5733333 11.08,15.5466667 10.9066667,15.5066667 C10.7333333,15.4666667 10.6133333,15.44 10.5733333,15.4266667 L11.2266667,12.36 C11.28,12.3733333 11.4133333,12.4 11.6666667,12.44 C11.9066667,12.48 12.1066667,12.52 12.2533333,12.56 C12.4,12.5866667 12.6133333,12.64 12.88,12.72 C13.1466667,12.8 13.36,12.8666667 13.5333333,12.9466667 C13.7066667,13.0266667 13.8933333,13.12 14.0933333,13.24 C14.2933333,13.36 14.44,13.4933333 14.56,13.6266667 C14.6666667,13.76 14.7466667,13.9333333 14.8,14.12 C14.8533333,14.3066667 14.8533333,14.5066667 14.8133333,14.7333333 C14.76,14.9066667 14.6933333,15.0533333 14.6133333,15.1866667 Z" id="Shape" fill="#FFFFFF" fill-rule="nonzero"></path>
            </g>
        </g>
    </g>
</svg>
